<?xml version="1.0" encoding="UTF-8"?>
<svg version="1.1" xmlns="http://www.w3.org/2000/svg" width="400" height="400">
<path d="M0 0 C1.54300781 -0.02416992 1.54300781 -0.02416992 3.1171875 -0.04882812 C9.70391991 -0.05307215 14.361225 0.21638309 19.34545898 4.94458008 C23.9311231 9.84241237 27.05835071 15.22549032 30.0625 21.1875 C30.73055664 22.46753906 30.73055664 22.46753906 31.41210938 23.7734375 C34.625 30.01167675 34.625 30.01167675 34.625 32.3125 C35.285 32.3125 35.945 32.3125 36.625 32.3125 C36.74875 32.82554688 36.8725 33.33859375 37 33.8671875 C38.76252637 40.41056665 41.35538184 46.42186507 44.15161133 52.56958008 C47.84064551 60.70103691 51.27494051 68.93537363 54.6796875 77.18945312 C59.5276202 89.81820052 59.5276202 89.81820052 68.625 99.3125 C69.676875 100.116875 69.676875 100.116875 70.75 100.9375 C78.85611823 104.81433915 88.8547747 104.807443 97.68359375 105.49609375 C100.19987299 105.70373726 102.71614893 105.91142085 105.23242188 106.11914062 C109.13485358 106.43468338 113.0374543 106.74799893 116.94018555 107.05981445 C142.31198676 109.09992819 142.31198676 109.09992819 154.015625 110.8359375 C154.79461655 110.95073959 155.57360809 111.06554169 156.37620544 111.18382263 C165.95472798 112.70355311 175.19194635 115.04606253 181.2578125 123.1640625 C181.70898438 123.87304688 182.16015625 124.58203125 182.625 125.3125 C183.05554688 125.98023437 183.48609375 126.64796875 183.9296875 127.3359375 C187.82720094 134.56649691 188.07263048 143.22033247 185.84765625 151.046875 C181.64069758 160.44890364 173.59304271 167.9019833 165.81640625 174.4375 C163.57371923 176.35637659 161.40968905 178.34900161 159.24926758 180.35961914 C154.63488729 184.652284 149.93745657 188.70315781 144.90625 192.50390625 C141.18917349 195.45083506 137.74206063 198.68681274 134.25390625 201.8984375 C132.02729742 203.94307978 129.77959383 205.95248589 127.5 207.9375 C126.87222656 208.48792969 126.24445313 209.03835937 125.59765625 209.60546875 C124.18087211 210.831478 122.74932598 212.04050555 121.30859375 213.23828125 C115.50096857 218.16567329 110.71775289 222.8034565 108.8828125 230.375 C108.54180138 235.58316978 109.44870038 240.15972791 110.5 245.25 C110.71906006 246.35174561 110.93812012 247.45349121 111.16381836 248.58862305 C113.51324186 260.18502577 116.16554049 271.71582171 118.78408813 283.25369263 C123.4185263 303.68004514 123.4185263 303.68004514 125.1875 312.6875 C125.42158569 313.83279175 125.42158569 313.83279175 125.66040039 315.0012207 C127.41291035 324.26960621 127.63370614 333.04557941 122.625 341.3125 C117.46355978 347.52567205 112.0916717 353.12339915 103.94921875 354.89453125 C103.07910156 354.97058594 102.20898438 355.04664063 101.3125 355.125 C100.45011719 355.21394531 99.58773438 355.30289062 98.69921875 355.39453125 C90.75892026 355.18265543 84.37657089 352.5360578 77.5 348.75 C76.6745166 348.30527344 75.8490332 347.86054688 74.99853516 347.40234375 C68.04349161 343.62210777 61.2573822 339.58886368 54.50830078 335.45556641 C51.17407917 333.43186592 47.80396311 331.46942381 44.4375 329.5 C37.14500599 325.2270411 29.89472239 320.88605339 22.66333008 316.51049805 C20.32375475 315.09984706 17.97614528 313.70376724 15.625 312.3125 C14.43245605 311.59429077 14.43245605 311.59429077 13.21582031 310.86157227 C7.3947637 307.45952292 3.36922622 306.40620782 -3.375 307.3125 C-6.33747229 308.023528 -6.33747229 308.023528 -8.375 309.3125 C-8.705 309.9725 -9.035 310.6325 -9.375 311.3125 C-10.344375 311.56 -11.31375 311.8075 -12.3125 312.0625 C-17.56295892 313.43914472 -21.81131147 316.46433444 -26.375 319.3125 C-28.120986 320.3401836 -29.87125946 321.36060619 -31.625 322.375 C-37.49271622 325.78963228 -43.34170525 329.23548516 -49.1875 332.6875 C-50.14567627 333.25235107 -51.10385254 333.81720215 -52.09106445 334.39916992 C-56.27965987 336.87241882 -60.46181987 339.35189785 -64.6015625 341.90625 C-89.92947704 357.521222 -89.92947704 357.521222 -100.375 356.3125 C-110.39423753 353.6668751 -119.12377929 346.09322972 -124.375 337.3125 C-128.88900919 327.55248012 -125.97285244 316.27956704 -123.875 306.1875 C-123.74350555 305.54541595 -123.61201111 304.90333191 -123.47653198 304.24179077 C-121.52156404 294.75793932 -119.20427635 285.40861966 -116.4375 276.125 C-116.1384375 275.0942334 -115.839375 274.0634668 -115.53125 273.00146484 C-109.69641263 254.36477457 -97.9485377 245.04967353 -81.375 236.3125 C-77.3889563 234.32191362 -73.3590405 232.43072961 -69.31445312 230.5625 C-64.49300384 228.33419797 -59.7824777 225.98972005 -55.125 223.4375 C-48.89896932 220.03587774 -42.53908455 216.96785081 -36.125 213.9375 C-27.19333632 209.71430083 -18.42508354 205.2584532 -9.7109375 200.60546875 C-4.58725462 197.87504015 0.61669525 195.31891244 5.83984375 192.78515625 C9.48781689 190.89586692 9.48781689 190.89586692 12.625 188.3125 C12.7602019 185.7448433 12.7602019 185.7448433 12.625 183.3125 C2.62848677 183.8113151 -7.16730249 184.67671332 -17.0625 186.25 C-18.40660608 186.45841721 -19.75076567 186.6664895 -21.0949707 186.87426758 C-38.79401447 189.63147939 -56.46476262 192.57924268 -74.13675499 195.50456429 C-76.10729253 195.83068843 -78.07793779 196.15616151 -80.04858398 196.48162842 C-82.47645442 196.88278043 -84.9041248 197.28514614 -87.33154297 197.68902588 C-125.6854619 204.02198218 -125.6854619 204.02198218 -142.3125 193.51953125 C-151.72684806 186.73495643 -160.17588451 178.68190108 -168.65625 170.78515625 C-170.54299835 169.06919116 -172.491899 167.42010331 -174.484375 165.828125 C-180.59960913 160.50621854 -185.77162697 152.57406915 -186.375 144.3125 C-186.57968648 135.27900318 -184.28678033 128.03108502 -178.5 121.05078125 C-172.60743377 115.19071079 -166.37498847 113.06011148 -158.375 111.3125 C-157.39877686 111.09835449 -157.39877686 111.09835449 -156.40283203 110.87988281 C-146.77098965 108.84321384 -137.30524919 108.08723006 -127.48242188 107.79174805 C-118.02378628 107.45052854 -108.62500488 106.615442 -99.20758057 105.69992065 C-97.4173815 105.52641327 -95.62681115 105.35669067 -93.83587646 105.19094849 C-91.28778536 104.95362132 -88.74155959 104.70159266 -86.1953125 104.4453125 C-85.43978088 104.37647354 -84.68424927 104.30763458 -83.90582275 104.23670959 C-77.35070377 103.54519823 -70.86168632 102.29054593 -65.625 98.125 C-60.96482177 92.29977721 -57.60400868 86.0568487 -54.74609375 79.19140625 C-54.27152489 78.07511086 -54.27152489 78.07511086 -53.78736877 76.93626404 C-52.78937274 74.58514652 -51.80066072 72.2302657 -50.8125 69.875 C-49.82064404 67.52892102 -48.82689451 65.18365093 -47.83291626 62.83847046 C-47.19801314 61.33867124 -46.56465952 59.83821501 -45.93295288 58.33706665 C-44.3151583 54.49738338 -42.65110809 50.68832041 -40.91015625 46.90234375 C-39.17840266 43.5034917 -39.17840266 43.5034917 -39.375 40.3125 C-38.715 40.3125 -38.055 40.3125 -37.375 40.3125 C-37.13064209 39.50220337 -37.13064209 39.50220337 -36.88134766 38.67553711 C-35.01755033 32.76886015 -32.63434621 27.35079459 -29.75 21.875 C-29.31413574 21.04750244 -28.87827148 20.22000488 -28.42919922 19.36743164 C-21.30034521 6.25750262 -15.17914892 -0.04719885 0 0 Z " fill="#A48BF2" transform="translate(199.375,-0.3125)"/>
<path d="M0 0 C1.54300781 -0.02416992 1.54300781 -0.02416992 3.1171875 -0.04882812 C9.70391991 -0.05307215 14.361225 0.21638309 19.34545898 4.94458008 C23.9311231 9.84241237 27.05835071 15.22549032 30.0625 21.1875 C30.73055664 22.46753906 30.73055664 22.46753906 31.41210938 23.7734375 C34.625 30.01167675 34.625 30.01167675 34.625 32.3125 C35.285 32.3125 35.945 32.3125 36.625 32.3125 C36.74875 32.82554688 36.8725 33.33859375 37 33.8671875 C38.76252637 40.41056665 41.35538184 46.42186507 44.15161133 52.56958008 C47.84064551 60.70103691 51.27494051 68.93537363 54.6796875 77.18945312 C59.5276202 89.81820052 59.5276202 89.81820052 68.625 99.3125 C69.32625 99.84875 70.0275 100.385 70.75 100.9375 C78.85611823 104.81433915 88.8547747 104.807443 97.68359375 105.49609375 C100.19987299 105.70373726 102.71614893 105.91142085 105.23242188 106.11914062 C109.13485358 106.43468338 113.0374543 106.74799893 116.94018555 107.05981445 C142.31198676 109.09992819 142.31198676 109.09992819 154.015625 110.8359375 C154.79461655 110.95073959 155.57360809 111.06554169 156.37620544 111.18382263 C165.95472798 112.70355311 175.19194635 115.04606253 181.2578125 123.1640625 C181.70898438 123.87304688 182.16015625 124.58203125 182.625 125.3125 C183.05554688 125.98023437 183.48609375 126.64796875 183.9296875 127.3359375 C187.82720094 134.56649691 188.07263048 143.22033247 185.84765625 151.046875 C181.64069758 160.44890364 173.59304271 167.9019833 165.81640625 174.4375 C163.57371923 176.35637659 161.40968905 178.34900161 159.24926758 180.35961914 C154.63488729 184.652284 149.93745657 188.70315781 144.90625 192.50390625 C141.18917349 195.45083506 137.74206063 198.68681274 134.25390625 201.8984375 C132.02729742 203.94307978 129.77959383 205.95248589 127.5 207.9375 C126.87222656 208.48792969 126.24445313 209.03835937 125.59765625 209.60546875 C124.18087211 210.831478 122.74932598 212.04050555 121.30859375 213.23828125 C115.50096857 218.16567329 110.71775289 222.8034565 108.8828125 230.375 C108.54180138 235.58316978 109.44870038 240.15972791 110.5 245.25 C110.71906006 246.35174561 110.93812012 247.45349121 111.16381836 248.58862305 C113.51324186 260.18502577 116.16554049 271.71582171 118.78408813 283.25369263 C123.4185263 303.68004514 123.4185263 303.68004514 125.1875 312.6875 C125.42158569 313.83279175 125.42158569 313.83279175 125.66040039 315.0012207 C126.85520335 321.32009745 127.68352604 328.13692188 125.625 334.3125 C124.965 334.3125 124.305 334.3125 123.625 334.3125 C123.58761719 333.30832031 123.55023438 332.30414063 123.51171875 331.26953125 C123.16133929 323.48842677 122.37684521 316.23235888 120.4453125 308.65625 C119.52347768 304.89867568 118.81048269 301.11828183 118.125 297.3125 C117.07084994 291.54252271 115.8631498 285.83168337 114.5078125 280.125 C113.08890922 273.99734692 111.78565402 267.84442136 110.47241211 261.69335938 C109.38948011 256.66307214 108.21695906 251.70221583 106.8125 246.75 C104.92234964 239.31975375 103.58760043 230.07060823 107.5 223.125 C108.20125 222.196875 108.9025 221.26875 109.625 220.3125 C110.285 219.3225 110.945 218.3325 111.625 217.3125 C112.285 217.3125 112.945 217.3125 113.625 217.3125 C114.285 215.9925 114.945 214.6725 115.625 213.3125 C116.285 213.3125 116.945 213.3125 117.625 213.3125 C117.625 212.6525 117.625 211.9925 117.625 211.3125 C119.0234375 209.90234375 119.0234375 209.90234375 121 208.25 C124.20046345 205.53326214 127.33806063 202.76914781 130.4375 199.9375 C133.92184862 196.78931365 137.47531795 193.76724964 141.125 190.8125 C146.46139746 186.48934256 151.55527839 181.94311186 156.625 177.3125 C166.31817792 168.52401868 166.31817792 168.52401868 170.1875 165.375 C172.67150436 163.54775736 172.67150436 163.54775736 173.625 161.3125 C174.285 161.3125 174.945 161.3125 175.625 161.3125 C175.851875 160.631875 176.07875 159.95125 176.3125 159.25 C177.625 156.3125 177.625 156.3125 180.25 153.375 C184.14093395 148.17561039 183.31718925 141.47662742 182.625 135.3125 C181.83188932 132.5094102 181.83188932 132.5094102 180.625 130.3125 C179.965 129.9825 179.305 129.6525 178.625 129.3125 C177.965 128.9825 177.305 128.6525 176.625 128.3125 C176.36589844 127.52230469 176.10679687 126.73210937 175.83984375 125.91796875 C174.22422438 122.45295872 172.70335579 122.00116722 169.1875 120.625 C168.21941406 120.22925781 167.25132812 119.83351563 166.25390625 119.42578125 C154.32557191 115.76638912 141.74108789 115.33683862 129.375 114.3125 C125.43190994 113.98353436 121.48917752 113.65077676 117.546875 113.3125 C116.59811996 113.23113297 115.64936493 113.14976593 114.67185974 113.06593323 C107.97095708 112.47382941 101.33431204 111.65777077 94.67333984 110.71435547 C89.77386503 110.06846923 84.90200265 109.92008641 79.96484375 109.75390625 C73.83730183 108.94406738 69.82232729 105.93316022 65.3125 101.875 C64.45011719 101.11316406 63.58773437 100.35132812 62.69921875 99.56640625 C60.66440667 97.35532043 59.97876532 96.24274486 59.625 93.3125 C58.965 93.3125 58.305 93.3125 57.625 93.3125 C57.00625 91.58 57.00625 91.58 56.375 89.8125 C54.99519497 86.089007 53.31110697 82.64611712 51.39453125 79.171875 C50.625 77.3125 50.625 77.3125 50.625 73.3125 C49.635 73.3125 48.645 73.3125 47.625 73.3125 C43.39759206 65.00345682 39.92599915 56.6023188 36.78710938 47.83398438 C35.30064757 43.71675566 35.30064757 43.71675566 32.625 40.3125 C32.625 38.9925 32.625 37.6725 32.625 36.3125 C31.965 36.3125 31.305 36.3125 30.625 36.3125 C30.37105469 35.55324219 30.11710938 34.79398438 29.85546875 34.01171875 C29.33919922 32.52091797 29.33919922 32.52091797 28.8125 31 C28.47605469 30.01386719 28.13960937 29.02773438 27.79296875 28.01171875 C26.65732248 25.38719845 25.642504 24.24033716 23.625 22.3125 C22.9375 19.125 22.9375 19.125 22.625 16.3125 C21.965 16.3125 21.305 16.3125 20.625 16.3125 C20.4290625 15.78140625 20.233125 15.2503125 20.03125 14.703125 C17.90646958 9.68424712 15.8991072 7.11909522 10.8359375 4.9921875 C7.09497979 3.84214043 3.52826144 3.40475891 -0.375 3.3125 C-1.509375 3.27125 -2.64375 3.23 -3.8125 3.1875 C-10.64406746 5.34483709 -16.45503926 11.37422614 -20.375 17.3125 C-21.00769264 18.79235736 -21.58881884 20.29500616 -22.125 21.8125 C-23.6936959 25.91524313 -25.60682957 29.55160203 -27.875 33.3125 C-30.98778798 38.4938287 -33.27865701 43.66021073 -35.375 49.3125 C-36.9081248 53.04501412 -38.51246265 56.7306974 -40.375 60.3125 C-41.035 60.3125 -41.695 60.3125 -42.375 60.3125 C-42.375 61.3025 -42.375 62.2925 -42.375 63.3125 C-43.365 63.8075 -43.365 63.8075 -44.375 64.3125 C-46.76727263 68.81334627 -48.79327642 73.53097155 -50.375 78.375 C-54.5623449 90.67532565 -60.96607996 100.97261147 -72.44555664 107.42501831 C-75.57091128 108.8625806 -78.77166363 109.21474067 -82.15625 109.50390625 C-82.89033081 109.57815323 -83.62441162 109.65240021 -84.3807373 109.72889709 C-92.05282222 110.46329105 -99.74702811 110.82454733 -107.44552612 111.14703369 C-126.15364772 111.93992397 -144.74723528 113.42953543 -163.375 115.3125 C-163.375 114.3225 -163.375 113.3325 -163.375 112.3125 C-152.26371772 110.07719521 -141.28742007 108.09257532 -129.9375 107.8125 C-119.65000039 107.54424345 -109.45099375 106.69855378 -99.21261597 105.70092773 C-97.42029295 105.52687155 -95.62758655 105.35671413 -93.83450317 105.19067383 C-91.286874 104.95340558 -88.74110358 104.70147627 -86.1953125 104.4453125 C-85.43980606 104.37647858 -84.68429962 104.30764465 -83.90589905 104.23672485 C-77.35075214 103.54518908 -70.86171486 102.29056864 -65.625 98.125 C-60.96482177 92.29977721 -57.60400868 86.0568487 -54.74609375 79.19140625 C-54.42971451 78.44720932 -54.11333527 77.70301239 -53.78736877 76.93626404 C-52.78937274 74.58514652 -51.80066072 72.2302657 -50.8125 69.875 C-49.82064404 67.52892102 -48.82689451 65.18365093 -47.83291626 62.83847046 C-47.19801314 61.33867124 -46.56465952 59.83821501 -45.93295288 58.33706665 C-44.3151583 54.49738338 -42.65110809 50.68832041 -40.91015625 46.90234375 C-39.17840266 43.5034917 -39.17840266 43.5034917 -39.375 40.3125 C-38.715 40.3125 -38.055 40.3125 -37.375 40.3125 C-37.13064209 39.50220337 -37.13064209 39.50220337 -36.88134766 38.67553711 C-35.01755033 32.76886015 -32.63434621 27.35079459 -29.75 21.875 C-29.31413574 21.04750244 -28.87827148 20.22000488 -28.42919922 19.36743164 C-21.30034521 6.25750262 -15.17914892 -0.04719885 0 0 Z " fill="#DE89D4" transform="translate(199.375,-0.3125)"/>
<path d="M0 0 C0.33 0.99 0.66 1.98 1 3 C0.21753906 3.48210937 -0.56492188 3.96421875 -1.37109375 4.4609375 C-2.38300781 5.09257812 -3.39492187 5.72421875 -4.4375 6.375 C-5.44683594 7.00148437 -6.45617187 7.62796875 -7.49609375 8.2734375 C-10.08011063 9.75816302 -10.08011063 9.75816302 -11 12 C-12.55970519 12.6932023 -14.12455563 13.37610908 -15.70703125 14.015625 C-18.53395981 15.22922977 -21.25609192 16.60911059 -24 18 C-28.28043075 20.16140563 -32.59239937 22.1110283 -37 24 C-40.05383313 25.54738462 -43.09801277 27.11091057 -46.1328125 28.6953125 C-48.80364116 29.9106487 -51.11120611 30.56615183 -54 31 C-54 31.66 -54 32.32 -54 33 C-56.80382634 35.08025825 -59.56911539 36.21260775 -62.875 37.1875 C-68.15718431 38.82985983 -72.81724847 41.47829695 -77.59521484 44.21948242 C-81.40716131 46.35435315 -84.64798759 47.55878215 -89 48 C-89 48.66 -89 49.32 -89 50 C-92.43525234 52.03310853 -95.67375081 53.86708366 -99.375 55.375 C-103.96703362 57.43349783 -107.90270627 60.10097142 -112 63 C-113.36125 63.928125 -113.36125 63.928125 -114.75 64.875 C-121.04715677 70.82231473 -123.37018605 78.43889156 -125.88671875 86.51171875 C-127 90 -127 90 -127.97973633 92.30639648 C-129.14243898 95.3760539 -129.795586 98.36684759 -130.4375 101.5859375 C-130.69273437 102.84664063 -130.94796875 104.10734375 -131.2109375 105.40625 C-131.47432962 106.72909279 -131.7373476 108.05201014 -132 109.375 C-132.51735279 111.96687363 -133.03907982 114.55777197 -133.5625 117.1484375 C-133.79066406 118.29489746 -134.01882812 119.44135742 -134.25390625 120.62255859 C-134.77869194 122.99817547 -135.39311188 125.35487841 -136.07104492 127.69140625 C-137.12535074 131.44645288 -137.30059948 134.72956259 -137.3125 138.625 C-137.32925781 139.89601563 -137.34601563 141.16703125 -137.36328125 142.4765625 C-136.61236152 149.75967648 -131.08621945 155.07013811 -126 160 C-119.91399778 164.75745704 -113.44967366 164.55298698 -106 164 C-102.48473838 163.58601101 -102.48473838 163.58601101 -100 163 C-100 162.34 -100 161.68 -100 161 C-99.01 160.608125 -98.02 160.21625 -97 159.8125 C-93.33565139 158.26648679 -90.16109413 156.24360674 -86.89453125 153.98828125 C-85 153 -85 153 -81 153 C-81 152.34 -81 151.68 -81 151 C-79.46557617 149.84594727 -79.46557617 149.84594727 -77.29296875 148.56640625 C-76.48794922 148.08776123 -75.68292969 147.60911621 -74.85351562 147.1159668 C-73.97373047 146.60332275 -73.09394531 146.09067871 -72.1875 145.5625 C-70.83881836 144.76549683 -70.83881836 144.76549683 -69.46289062 143.95239258 C-66.64718266 142.29243337 -63.82484773 140.64435098 -61 139 C-60.13584473 138.49629883 -59.27168945 137.99259766 -58.38134766 137.47363281 C-54.36223448 135.13402107 -50.33635697 132.80718453 -46.30078125 130.49609375 C-43.61820959 128.95416173 -40.97164133 127.37463029 -38.35546875 125.72265625 C-37.31003906 125.07167969 -36.26460938 124.42070312 -35.1875 123.75 C-34.31480469 123.18796875 -33.44210938 122.6259375 -32.54296875 122.046875 C-29.32153912 120.72069506 -27.32796968 121.16436382 -24 122 C-24 122.66 -24 123.32 -24 124 C-24.94875 124.20625 -25.8975 124.4125 -26.875 124.625 C-32.1084355 126.12476208 -36.41772639 129.14023563 -41 132 C-42.745986 133.0276836 -44.49625946 134.04810619 -46.25 135.0625 C-52.11771622 138.47713228 -57.96670525 141.92298516 -63.8125 145.375 C-64.77067627 145.93985107 -65.72885254 146.50470215 -66.71606445 147.08666992 C-70.90465987 149.55991882 -75.08681987 152.03939785 -79.2265625 154.59375 C-104.55447704 170.208722 -104.55447704 170.208722 -115 169 C-125.01923753 166.3543751 -133.74877929 158.78072972 -139 150 C-143.51400919 140.23998012 -140.59785244 128.96706704 -138.5 118.875 C-138.36850555 118.23291595 -138.23701111 117.59083191 -138.10153198 116.92929077 C-136.14656404 107.44543932 -133.82927635 98.09611966 -131.0625 88.8125 C-130.7634375 87.7817334 -130.464375 86.7509668 -130.15625 85.68896484 C-124.32141263 67.05227457 -112.5735377 57.73717353 -96 49 C-92.0139563 47.00941362 -87.9840405 45.11822961 -83.93945312 43.25 C-79.11800384 41.02169797 -74.4074777 38.67722005 -69.75 36.125 C-63.52396932 32.72337774 -57.16408455 29.65535081 -50.75 26.625 C-41.81570058 22.40055456 -33.04502281 17.94307091 -24.328125 13.2890625 C-19.27113031 10.59424622 -14.13627199 8.06971529 -8.98046875 5.5703125 C-5.80837239 3.89903762 -2.94782205 2.03571567 0 0 Z " fill="#D1E2FB" transform="translate(214,187)"/>
<path d="M0 0 C11.92782513 0.34660013 23.76346444 1.04184671 35.625 2.375 C36.6773584 2.48884033 37.7297168 2.60268066 38.81396484 2.7199707 C63.28551607 5.60883944 63.28551607 5.60883944 71.25 14.1875 C77.69162201 22.5299285 79.33171355 30.49026062 78 41 C74.93042299 51.79750706 65.53706951 60.11127088 57.19140625 67.125 C54.94871923 69.04387659 52.78468905 71.03650161 50.62426758 73.04711914 C46.00988729 77.339784 41.31245657 81.39065781 36.28125 85.19140625 C32.56417349 88.13833506 29.11706063 91.37431274 25.62890625 94.5859375 C23.40229742 96.63057978 21.15459383 98.63998589 18.875 100.625 C17.93333984 101.45064453 17.93333984 101.45064453 16.97265625 102.29296875 C15.55587211 103.518978 14.12432598 104.72800555 12.68359375 105.92578125 C6.87596857 110.85317329 2.09275289 115.4909565 0.2578125 123.0625 C-0.08319862 128.27066978 0.82370038 132.84722791 1.875 137.9375 C2.09406006 139.03924561 2.31312012 140.14099121 2.53881836 141.27612305 C4.88824186 152.87252577 7.54054049 164.40332171 10.15908813 175.94119263 C14.7935263 196.36754514 14.7935263 196.36754514 16.5625 205.375 C16.79658569 206.52029175 16.79658569 206.52029175 17.03540039 207.6887207 C18.23020335 214.00759745 19.05852604 220.82442188 17 227 C16.34 227 15.68 227 15 227 C14.96261719 225.99582031 14.92523438 224.99164063 14.88671875 223.95703125 C14.53633929 216.17592677 13.75184521 208.91985888 11.8203125 201.34375 C10.89847768 197.58617568 10.18548269 193.80578183 9.5 190 C8.44584994 184.23002271 7.2381498 178.51918337 5.8828125 172.8125 C4.46390922 166.68484692 3.16065402 160.53192136 1.84741211 154.38085938 C0.76448011 149.35057214 -0.40804094 144.38971583 -1.8125 139.4375 C-3.70265036 132.00725375 -5.03739957 122.75810823 -1.125 115.8125 C-0.42375 114.884375 0.2775 113.95625 1 113 C1.66 112.01 2.32 111.02 3 110 C3.66 110 4.32 110 5 110 C5.66 108.68 6.32 107.36 7 106 C7.66 106 8.32 106 9 106 C9 105.34 9 104.68 9 104 C10.3984375 102.58984375 10.3984375 102.58984375 12.375 100.9375 C15.57546345 98.22076214 18.71306063 95.45664781 21.8125 92.625 C25.29684862 89.47681365 28.85031795 86.45474964 32.5 83.5 C37.83639746 79.17684256 42.93027839 74.63061186 48 70 C57.69317792 61.21151868 57.69317792 61.21151868 61.5625 58.0625 C64.04650436 56.23525736 64.04650436 56.23525736 65 54 C65.66 54 66.32 54 67 54 C67.226875 53.319375 67.45375 52.63875 67.6875 51.9375 C69 49 69 49 71.625 46.0625 C75.54338365 40.70970805 74.85688263 34.29294607 74 28 C72.05362247 21.46970478 69.72265531 16.87097325 64 13 C52.84571409 7.74295796 42.4992657 6.34318317 30.30029297 6.08740234 C20.71887498 5.72334507 10.19248973 4.66341755 1 2 C0.67 1.34 0.34 0.68 0 0 Z " fill="#F0D3F3" transform="translate(308,107)"/>
<path d="M0 0 C0.33 0 0.66 0 1 0 C0.37679879 6.43974581 -0.64008262 12.67572401 -2 19 C-2.66 19 -3.32 19 -4 19 C-4 19.99 -4 20.98 -4 22 C-4.66 22.33 -5.32 22.66 -6 23 C-8.39227263 27.50084627 -10.41827642 32.21847155 -12 37.0625 C-16.1873449 49.36282565 -22.59107996 59.66011147 -34.07055664 66.11251831 C-37.19591128 67.5500806 -40.39666363 67.90224067 -43.78125 68.19140625 C-44.51533081 68.26565323 -45.24941162 68.33990021 -46.0057373 68.41639709 C-53.67782222 69.15079105 -61.37202811 69.51204733 -69.07052612 69.83453369 C-87.77864772 70.62742397 -106.37223528 72.11703543 -125 74 C-125 73.01 -125 72.02 -125 71 C-113.88871772 68.76469521 -102.91242007 66.78007532 -91.5625 66.5 C-81.27500039 66.23174345 -71.07599375 65.38605378 -60.83761597 64.38842773 C-59.04529295 64.21437155 -57.25258655 64.04421413 -55.45950317 63.87817383 C-52.911874 63.64090558 -50.36610358 63.38897627 -47.8203125 63.1328125 C-47.06480606 63.06397858 -46.30929962 62.99514465 -45.53089905 62.92422485 C-38.97575214 62.23268908 -32.48671486 60.97806864 -27.25 56.8125 C-20.44293395 48.30366744 -16.6711778 38.64168111 -12.5 28.6875 C-11.20030456 25.60706135 -9.8970624 22.52812848 -8.59375 19.44921875 C-8.28356934 18.71452362 -7.97338867 17.97982849 -7.65380859 17.22286987 C-5.20377037 11.43498123 -2.65102439 5.69892273 0 0 Z " fill="#B3A2F2" transform="translate(161,41)"/>
<path d="M0 0 C0.66 0 1.32 0 2 0 C3.44003508 3.29056291 4.87681185 6.58253827 6.3125 9.875 C6.75746826 10.89480957 7.20243652 11.91461914 7.66088867 12.96533203 C10.12418005 18.62819905 12.55555895 24.30239701 14.9375 30 C15.41791748 31.14742676 15.89833496 32.29485352 16.39331055 33.47705078 C17.31853448 35.69230395 18.23948166 37.90934967 19.15551758 40.12841797 C23.97561208 52.61857734 23.97561208 52.61857734 33 62 C33.70125 62.53625 34.4025 63.0725 35.125 63.625 C44.06099806 67.8987382 55.19953534 67.5884044 64.91796875 68.2109375 C66.46291016 68.32308594 66.46291016 68.32308594 68.0390625 68.4375 C68.96928223 68.49808594 69.89950195 68.55867188 70.85791016 68.62109375 C71.5647998 68.74613281 72.27168945 68.87117188 73 69 C73.33 69.66 73.66 70.32 74 71 C83.92851212 73.87667152 95.30471615 74.91975583 105.65234375 75.13671875 C118.26451607 75.40797604 131.51684732 76.89960966 141.5625 85.375 C142.7690625 86.674375 142.7690625 86.674375 144 88 C143.67 89.32 143.34 90.64 143 92 C142.34 91.67 141.68 91.34 141 91 C140.74089844 90.20980469 140.48179687 89.41960937 140.21484375 88.60546875 C138.59922438 85.14045872 137.07835579 84.68866722 133.5625 83.3125 C132.59441406 82.91675781 131.62632812 82.52101563 130.62890625 82.11328125 C118.70057191 78.45388912 106.11608789 78.02433862 93.75 77 C89.80690994 76.67103436 85.86417752 76.33827676 81.921875 76 C80.97311996 75.91863297 80.02436493 75.83726593 79.04685974 75.75343323 C72.34595708 75.16132941 65.70931204 74.34527077 59.04833984 73.40185547 C54.14886503 72.75596923 49.27700265 72.60758641 44.33984375 72.44140625 C38.21230183 71.63156738 34.19732729 68.62066022 29.6875 64.5625 C28.82511719 63.80066406 27.96273438 63.03882813 27.07421875 62.25390625 C25.03940667 60.04282043 24.35376532 58.93024486 24 56 C23.34 56 22.68 56 22 56 C21.5875 54.845 21.175 53.69 20.75 52.5 C19.37019497 48.776507 17.68610697 45.33361712 15.76953125 41.859375 C15 40 15 40 15 36 C14.34 36 13.68 36 13 36 C12.78384033 35.45698242 12.56768066 34.91396484 12.3449707 34.35449219 C11.33512069 31.81927244 10.32382834 29.28463038 9.3125 26.75 C8.94962891 25.83863281 8.58675781 24.92726563 8.21289062 23.98828125 C5.84229657 18.05126949 3.39637889 12.16022591 0.8125 6.3125 C0 4 0 4 0 0 Z " fill="#F4D5F5" transform="translate(235,37)"/>
<path d="M0 0 C0.99 0.33 1.98 0.66 3 1 C2.23429687 1.41958984 2.23429687 1.41958984 1.453125 1.84765625 C-4.24292082 4.98856095 -9.83519249 8.27352103 -15.3984375 11.64453125 C-18 13 -18 13 -21 13 C-21.226875 13.556875 -21.45375 14.11375 -21.6875 14.6875 C-23 17 -23 17 -25.625 19.4375 C-28.25629525 21.76716333 -28.25629525 21.76716333 -28.3125 24.8125 C-28.209375 25.534375 -28.10625 26.25625 -28 27 C-28.66 27 -29.32 27 -30 27 C-33.65354236 30.55637368 -34.34480249 35.34584354 -35.5 40.125 C-35.93339887 41.85584427 -36.36827785 43.58631865 -36.8046875 45.31640625 C-37.01061523 46.1377002 -37.21654297 46.95899414 -37.42871094 47.80517578 C-38.06735121 50.2587553 -38.82210473 52.65803997 -39.625 55.0625 C-41.34943335 60.5591313 -42.12653104 66.25213262 -42.99853516 71.93383789 C-43.90706061 77.81412121 -43.90706061 77.81412121 -45 80 C-45.1251687 82.94874168 -45.18517983 85.86356546 -45.1875 88.8125 C-45.19974609 89.62009766 -45.21199219 90.42769531 -45.22460938 91.25976562 C-45.23534342 95.62852255 -45.04117085 99.02254059 -43 103 C-42.34 103 -41.68 103 -41 103 C-41 103.66 -41 104.32 -41 105 C-40.01 105.33 -39.02 105.66 -38 106 C-38 106.66 -38 107.32 -38 108 C-37.401875 108.28875 -36.80375 108.5775 -36.1875 108.875 C-34 110 -34 110 -31 112 C-28.78415454 112.44703234 -26.55158039 112.81463242 -24.3125 113.125 C-23.13300781 113.29257812 -21.95351562 113.46015625 -20.73828125 113.6328125 C-19.38283203 113.81457031 -19.38283203 113.81457031 -18 114 C-18 113.34 -18 112.68 -18 112 C-17.175 111.9175 -16.35 111.835 -15.5 111.75 C-9.37125918 110.4366984 -4.32639607 107.20378749 1 104 C2.9350153 102.89148474 4.87283689 101.78786234 6.8125 100.6875 C13.43831567 96.91222033 20.03513983 93.08764289 26.625 89.25 C27.65302734 88.65227783 28.68105469 88.05455566 29.74023438 87.4387207 C34.72604866 84.53071879 39.6892693 81.59472412 44.60546875 78.5703125 C66.66449718 65.00178317 66.66449718 65.00178317 81 66 C81 66.33 81 66.66 81 67 C75.72 67.66 70.44 68.32 65 69 C64.67 70.65 64.34 72.3 64 74 C63.29488281 73.77183594 62.58976562 73.54367187 61.86328125 73.30859375 C57.99684104 72.89188328 56.4916585 74.03844316 53.1875 76.0625 C51.95604197 76.80260406 50.72424305 77.54214107 49.4921875 78.28125 C48.79577148 78.70535156 48.09935547 79.12945312 47.38183594 79.56640625 C44.64964073 81.21087635 41.89368956 82.81040821 39.1328125 84.40625 C30.03003398 89.67197654 20.97090885 94.92532205 12.1862793 100.71264648 C10 102 10 102 8 102 C8 102.66 8 103.32 8 104 C6.824375 104.391875 5.64875 104.78375 4.4375 105.1875 C1.32204948 106.33442692 -1.11366488 107.67450659 -3.75 109.6875 C-7 112 -7 112 -11 112 C-11 112.66 -11 113.32 -11 114 C-17.2661766 116.78496738 -24.70386068 117.2139683 -31.30859375 115.34765625 C-38.28194245 112.1804238 -43.58256285 106.11645143 -48 100 C-49.18849946 96.43450163 -49.16877998 93.50898083 -49.1875 89.75 C-49.20167969 88.46609375 -49.21585937 87.1821875 -49.23046875 85.859375 C-48.99497246 81.91581001 -48.09947594 78.78468681 -47 75 C-46.45879629 72.51166673 -45.94307986 70.0176916 -45.44921875 67.51953125 C-45.16007987 66.09298236 -44.87034702 64.66655376 -44.58007812 63.24023438 C-44.13357079 61.03452228 -43.69060772 58.82836721 -43.25805664 56.61987305 C-41.40980752 47.22047722 -39.03795758 38.74876014 -35 30 C-34.49741627 28.73018625 -33.99704605 27.45949158 -33.5 26.1875 C-28.65444769 15.89070134 -19.385015 8.45536332 -8.8671875 4.12109375 C-8.20976563 3.89550781 -7.55234375 3.66992188 -6.875 3.4375 C-4.15917937 2.5022855 -2.4589516 1.63930107 0 0 Z " fill="#409DF9" transform="translate(125,236)"/>
<path d="M0 0 C0 0.66 0 1.32 0 2 C-0.94875 2.20625 -1.8975 2.4125 -2.875 2.625 C-8.1084355 4.12476208 -12.41772639 7.14023563 -17 10 C-18.745986 11.0276836 -20.49625946 12.04810619 -22.25 13.0625 C-28.11771622 16.47713228 -33.96670525 19.92298516 -39.8125 23.375 C-40.77067627 23.93985107 -41.72885254 24.50470215 -42.71606445 25.08666992 C-46.90465987 27.55991882 -51.08681987 30.03939785 -55.2265625 32.59375 C-80.55447704 48.208722 -80.55447704 48.208722 -91 47 C-98.9338841 44.90502208 -106.66877449 39.17824264 -112 33 C-112.1875 30.3125 -112.1875 30.3125 -112 28 C-111.34 28.680625 -110.68 29.36125 -110 30.0625 C-107.71921911 32.33032191 -105.38445672 34.52884411 -103 36.6875 C-102.360625 37.26886719 -101.72125 37.85023438 -101.0625 38.44921875 C-94.36115445 43.48791986 -86.17749439 42.55699925 -78.25 41.5 C-77.13625 41.2525 -77.13625 41.2525 -76 41 C-76 40.34 -76 39.68 -76 39 C-75.01 38.608125 -74.02 38.21625 -73 37.8125 C-69.33565139 36.26648679 -66.16109413 34.24360674 -62.89453125 31.98828125 C-61 31 -61 31 -57 31 C-57 30.34 -57 29.68 -57 29 C-55.46557617 27.84594727 -55.46557617 27.84594727 -53.29296875 26.56640625 C-52.48794922 26.08776123 -51.68292969 25.60911621 -50.85351562 25.1159668 C-49.97373047 24.60332275 -49.09394531 24.09067871 -48.1875 23.5625 C-47.28837891 23.03116455 -46.38925781 22.4998291 -45.46289062 21.95239258 C-42.64718266 20.29243337 -39.82484773 18.64435098 -37 17 C-36.13584473 16.49629883 -35.27168945 15.99259766 -34.38134766 15.47363281 C-30.36223448 13.13402107 -26.33635697 10.80718453 -22.30078125 8.49609375 C-19.61820959 6.95416173 -16.97164133 5.37463029 -14.35546875 3.72265625 C-13.31003906 3.07167969 -12.26460938 2.42070312 -11.1875 1.75 C-10.31480469 1.18796875 -9.44210938 0.6259375 -8.54296875 0.046875 C-5.32153912 -1.27930494 -3.32796968 -0.83563618 0 0 Z " fill="#BAD0FD" transform="translate(190,309)"/>
<path d="M0 0 C0.1875 2.625 0.1875 2.625 0 5 C-0.66 5 -1.32 5 -2 5 C-2.495 3.515 -2.495 3.515 -3 2 C-12.9966349 2.49882117 -22.79206546 3.36521656 -32.6875 4.9375 C-34.02500418 5.14378735 -35.3625725 5.34965912 -36.70019531 5.55517578 C-46.30022271 7.04393931 -55.88214187 8.64144454 -65.4637394 10.24379921 C-67.53600488 10.58998552 -69.60844541 10.93510304 -71.68095398 11.27983093 C-72.36920289 11.39433373 -73.0574518 11.50883654 -73.76655674 11.62680912 C-75.16318727 11.85915591 -76.55982616 12.0914524 -77.95647335 12.323699 C-82.13941208 13.02025671 -86.32067158 13.72604498 -90.50093746 14.43845844 C-92.50472945 14.77862773 -94.50914885 15.11477202 -96.51390076 15.44923401 C-99.00251176 15.86465461 -101.49002183 16.28674147 -103.97621155 16.71641541 C-105.09168869 16.90071609 -106.20716583 17.08501678 -107.35644531 17.27490234 C-108.32946594 17.43969086 -109.30248657 17.60447937 -110.30499268 17.77426147 C-113.10095341 18.00845603 -115.29225852 17.68765289 -118 17 C-117.67 16.34 -117.34 15.68 -117 15 C-114.5 14.2890625 -114.5 14.2890625 -111 13.625 C-110.33540771 13.49834961 -109.67081543 13.37169922 -108.98608398 13.24121094 C-101.9964766 11.94030857 -94.96985088 10.85873509 -87.94555664 9.7644043 C-81.06118093 8.68125984 -74.19629054 7.51815717 -67.3359375 6.29296875 C-66.49005569 6.14194199 -65.64417389 5.99091522 -64.7726593 5.83531189 C-63.91705917 5.68252274 -63.06145905 5.52973358 -62.17993164 5.37231445 C-35.76496479 0.65666539 -35.76496479 0.65666539 -23.125 -0.9375 C-22.2187085 -1.05359619 -21.31241699 -1.16969238 -20.37866211 -1.28930664 C-4.697186 -3.13145733 -4.697186 -3.13145733 0 0 Z " fill="#DCD4FC" transform="translate(215,181)"/>
<path d="M0 0 C-0.4846875 0.25652344 -0.969375 0.51304688 -1.46875 0.77734375 C-7.44609163 4.19132541 -14.08936457 9.14827408 -16.6953125 15.765625 C-17.75037186 23.50272696 -18.96276431 33.15649501 -14.5625 40 C-12.92444273 42.05897571 -12.92444273 42.05897571 -11 44 C-10.26523437 44.77859375 -9.53046875 45.5571875 -8.7734375 46.359375 C-6.55983238 48.62480366 -4.29264774 50.81500703 -2 53 C-1.1853125 53.81597656 -0.370625 54.63195312 0.46875 55.47265625 C16.54502067 71.79449463 16.54502067 71.79449463 37 81 C37.87914062 81.18304688 38.75828125 81.36609375 39.6640625 81.5546875 C43.92288849 82.12319589 48.08482138 82.10697554 52.375 82.0625 C53.20644531 82.05798828 54.03789063 82.05347656 54.89453125 82.04882812 C56.92971897 82.03713164 58.96486923 82.01919935 61 82 C60.505 83.485 60.505 83.485 60 85 C46.52268075 87.24621988 33.79364933 85.61699924 22.0625 78.20703125 C12.64815194 71.42245643 4.19911549 63.36940108 -4.28125 55.47265625 C-6.16799835 53.75669116 -8.116899 52.10760331 -10.109375 50.515625 C-16.22460913 45.19371854 -21.39662697 37.26156915 -22 29 C-22.20443707 19.97751049 -20.03820722 12.29325189 -13.7734375 5.6328125 C-5.69014044 -1.76590565 -5.69014044 -1.76590565 0 0 Z " fill="#D6DDFC" transform="translate(35,115)"/>
<path d="M0 0 C0.495 1.485 0.495 1.485 1 3 C0.21753906 3.48210937 -0.56492187 3.96421875 -1.37109375 4.4609375 C-2.38300781 5.09257812 -3.39492187 5.72421875 -4.4375 6.375 C-5.44683594 7.00148437 -6.45617187 7.62796875 -7.49609375 8.2734375 C-10.08011063 9.75816302 -10.08011063 9.75816302 -11 12 C-12.55970519 12.6932023 -14.12455563 13.37610908 -15.70703125 14.015625 C-18.53395981 15.22922977 -21.25609192 16.60911059 -24 18 C-28.28043075 20.16140563 -32.59239937 22.1110283 -37 24 C-40.05383313 25.54738462 -43.09801277 27.11091057 -46.1328125 28.6953125 C-48.80364116 29.9106487 -51.11120611 30.56615183 -54 31 C-54 31.66 -54 32.32 -54 33 C-56.80382634 35.08025825 -59.56911539 36.21260775 -62.875 37.1875 C-68.15718431 38.82985983 -72.81724847 41.47829695 -77.59521484 44.21948242 C-81.40716131 46.35435315 -84.64798759 47.55878215 -89 48 C-89 48.66 -89 49.32 -89 50 C-93.58031088 52.99481865 -93.58031088 52.99481865 -96 54 C-98.4375 53.25 -98.4375 53.25 -100 52 C-96.17051654 48.72790767 -91.72472616 46.89094069 -87.1875 44.8125 C-80.66527338 41.77824675 -74.29100083 38.60606219 -67.97827148 35.15698242 C-62.33161492 32.10789202 -56.5513022 29.36584021 -50.75 26.625 C-41.81570058 22.40055456 -33.04502281 17.94307091 -24.328125 13.2890625 C-19.27113031 10.59424622 -14.13627199 8.06971529 -8.98046875 5.5703125 C-5.80837239 3.89903762 -2.94782205 2.03571567 0 0 Z " fill="#CED0FD" transform="translate(214,187)"/>
<path d="M0 0 C4.10002321 1.45484694 7.7364457 3.49170161 11.5078125 5.625 C15.60382338 7.88486807 19.80085812 9.9398782 24 12 C24 12.66 24 13.32 24 14 C24.66515625 14.22945313 25.3303125 14.45890625 26.015625 14.6953125 C29.86457446 16.37796841 33.2314462 18.59534447 36.75 20.875 C42.35156863 24.44793037 47.80475306 27.54326414 54 30 C54.66 30.33 55.32 30.66 56 31 C56 31.66 56 32.32 56 33 C56.67546875 33.19335938 57.3509375 33.38671875 58.046875 33.5859375 C58.93890625 33.84632813 59.8309375 34.10671875 60.75 34.375 C61.63171875 34.63023437 62.5134375 34.88546875 63.421875 35.1484375 C66 36 66 36 67.875 37.0625 C70.9643675 38.42545625 73.89423792 38.43856877 77.25 38.625 C78.51328125 38.69976562 79.7765625 38.77453125 81.078125 38.8515625 C82.04234375 38.90054688 83.0065625 38.94953125 84 39 C84 39.66 84 40.32 84 41 C82.52374679 41.22806417 81.04363081 41.43112291 79.5625 41.625 C78.73878906 41.74101562 77.91507812 41.85703125 77.06640625 41.9765625 C69.14365287 42.03711858 62.70301566 39.19682458 55.875 35.4375 C54.6367749 34.77041016 54.6367749 34.77041016 53.37353516 34.08984375 C46.42879999 30.31521062 39.65289149 26.28817729 32.9140625 22.16064453 C29.42530856 20.04514246 25.89691396 17.99712409 22.375 15.9375 C20.26163952 14.69416284 18.14950983 13.44877118 16.03808594 12.20214844 C14.69357873 11.40910178 13.347898 10.61804089 12.00097656 9.82910156 C10.16188237 8.74908722 8.33011746 7.65763776 6.5 6.5625 C5.4584375 5.94503906 4.416875 5.32757813 3.34375 4.69140625 C1 3 1 3 0 0 Z " fill="#DCD3FC" transform="translate(221,313)"/>
<path d="M0 0 C0.83700439 0.20568604 0.83700439 0.20568604 1.69091797 0.41552734 C9.16302599 2.09521031 16.48663967 2.42872522 24.125 2.625 C25.98898437 2.68300781 25.98898437 2.68300781 27.890625 2.7421875 C30.92694319 2.83561268 33.9632685 2.92138119 37 3 C37.33 2.34 37.66 1.68 38 1 C38.495 1.99 38.495 1.99 39 3 C48.92851212 5.87667152 60.30471615 6.91975583 70.65234375 7.13671875 C83.26451607 7.40797604 96.51684732 8.89960966 106.5625 17.375 C107.366875 18.24125 108.17125 19.1075 109 20 C108.67 21.32 108.34 22.64 108 24 C107.34 23.67 106.68 23.34 106 23 C105.74089844 22.20980469 105.48179687 21.41960937 105.21484375 20.60546875 C103.59922438 17.14045872 102.07835579 16.68866722 98.5625 15.3125 C97.59441406 14.91675781 96.62632812 14.52101563 95.62890625 14.11328125 C83.70057191 10.45388912 71.11608789 10.02433862 58.75 9 C54.80690994 8.67103436 50.86417752 8.33827676 46.921875 8 C45.97311996 7.91863297 45.02436493 7.83726593 44.04685974 7.75343323 C37.34595708 7.16132941 30.70931204 6.34527077 24.04833984 5.40185547 C19.14886503 4.75596923 14.27700265 4.60758641 9.33984375 4.44140625 C5.68586365 3.95848256 3.18296597 2.8167614 0 1 C0 0.67 0 0.34 0 0 Z " fill="#E88FD3" transform="translate(270,105)"/>
<path d="M0 0 C0.33 0 0.66 0 1 0 C0.37679879 6.43974581 -0.64008262 12.67572401 -2 19 C-2.66 19 -3.32 19 -4 19 C-4 19.99 -4 20.98 -4 22 C-4.99 22.495 -4.99 22.495 -6 23 C-8.39227263 27.50084627 -10.41827642 32.21847155 -12 37.0625 C-15.20745719 46.48440551 -20.44215811 57.51006369 -29 63 C-32.30444119 63.94624928 -35.59486472 64.5491224 -39 65 C-38.67 64.01 -38.34 63.02 -38 62 C-36.02399618 61.27546526 -34.04657008 60.55428907 -32.05859375 59.86328125 C-21.16433962 55.29472306 -16.71812736 38.75372245 -12.5 28.6875 C-11.20030456 25.60706135 -9.8970624 22.52812848 -8.59375 19.44921875 C-8.28356934 18.71452362 -7.97338867 17.97982849 -7.65380859 17.22286987 C-5.20377037 11.43498123 -2.65102439 5.69892273 0 0 Z " fill="#F1DBF5" transform="translate(161,41)"/>
<path d="M0 0 C3.99648547 3.648965 4.28608015 7.16199781 4.5625 12.4375 C4.55402953 20.57762385 1.42464053 26.05250256 -4 32 C-4.66 32 -5.32 32 -6 32 C-6.21398437 32.55042969 -6.42796875 33.10085937 -6.6484375 33.66796875 C-8.45843026 36.79099094 -10.95118347 38.94781657 -13.625 41.3125 C-14.44013062 42.04533203 -14.44013062 42.04533203 -15.27172852 42.79296875 C-16.84229936 44.20166109 -18.4199893 45.601914 -20 47 C-20.69738281 47.62261719 -21.39476562 48.24523437 -22.11328125 48.88671875 C-26.62867156 52.87998684 -31.23643584 56.76728989 -35.84887695 60.64770508 C-38.79425226 63.12570941 -41.7212471 65.62112829 -44.62109375 68.15234375 C-45.50148315 68.91466309 -45.50148315 68.91466309 -46.3996582 69.69238281 C-47.52960033 70.67154874 -48.65465614 71.65638878 -49.77416992 72.64746094 C-53.66274682 76 -53.66274682 76 -57 76 C-57 75.34 -57 74.68 -57 74 C-55.20703125 72.4140625 -55.20703125 72.4140625 -52.8125 70.625 C-51.98878906 70.00109375 -51.16507812 69.3771875 -50.31640625 68.734375 C-49.55199219 68.16203125 -48.78757812 67.5896875 -48 67 C-45.3208119 64.92971829 -42.92744812 62.92558782 -40.5625 60.5 C-38 58 -38 58 -35.0625 56.125 C-31.86032466 53.90308241 -29.87375239 51.58587207 -27.4375 48.59765625 C-25.56455186 46.51603726 -23.42699535 45.3690743 -21 44 C-19.31058342 42.35639811 -17.64745627 40.68565815 -16 39 C-15.09121094 38.1028125 -14.18242187 37.205625 -13.24609375 36.28125 C-12.31925781 35.3634375 -11.39242187 34.445625 -10.4375 33.5 C-9.50808594 32.5821875 -8.57867187 31.664375 -7.62109375 30.71875 C-1.86219097 24.74528303 1.05796578 19.96290258 1.1875 11.5 C1.10046415 7.59677673 0.65470103 3.84636856 0 0 Z " fill="#DE87D1" transform="translate(379,129)"/>
<path d="M0 0 C0.99 0.33 1.98 0.66 3 1 C2.23429687 1.41958984 2.23429687 1.41958984 1.453125 1.84765625 C-4.24292082 4.98856095 -9.83519249 8.27352103 -15.3984375 11.64453125 C-18 13 -18 13 -21 13 C-21.226875 13.556875 -21.45375 14.11375 -21.6875 14.6875 C-23 17 -23 17 -25.625 19.4375 C-28.25629525 21.76716333 -28.25629525 21.76716333 -28.3125 24.8125 C-28.209375 25.534375 -28.10625 26.25625 -28 27 C-28.66 27 -29.32 27 -30 27 C-33.65384608 30.55666932 -34.3441388 35.34568277 -35.5 40.125 C-35.92971531 41.83235247 -36.36069464 43.53938733 -36.79296875 45.24609375 C-36.99841309 46.0644873 -37.20385742 46.88288086 -37.41552734 47.72607422 C-38.47795384 51.85950797 -39.731111 55.92619849 -41 60 C-41.66 60 -42.32 60 -43 60 C-41.95588708 49.0368143 -39.42650594 40.11166693 -35 30 C-34.49983014 28.72923351 -33.99979728 27.45841307 -33.5 26.1875 C-28.65444769 15.89070134 -19.385015 8.45536332 -8.8671875 4.12109375 C-8.20976563 3.89550781 -7.55234375 3.66992188 -6.875 3.4375 C-4.15917937 2.5022855 -2.4589516 1.63930107 0 0 Z " fill="#529CF3" transform="translate(125,236)"/>
<path d="M0 0 C0.1875 2.625 0.1875 2.625 0 5 C-0.66 5 -1.32 5 -2 5 C-2.495 3.515 -2.495 3.515 -3 2 C-14.18816843 2.49672829 -25.07719575 3.75844378 -36.125 5.5625 C-38.30913089 5.9157868 -40.49355256 6.26675925 -42.67892456 6.61228943 C-44.63460763 6.92190121 -46.58907925 7.23913768 -48.54345703 7.55688477 C-51.74437501 7.96722988 -54.77803766 8.08368332 -58 8 C-58 7.34 -58 6.68 -58 6 C-57.154375 5.89042969 -56.30875 5.78085938 -55.4375 5.66796875 C-54.303125 5.50941406 -53.16875 5.35085937 -52 5.1875 C-50.329375 4.96126953 -50.329375 4.96126953 -48.625 4.73046875 C-44.92303914 4.09672068 -44.92303914 4.09672068 -41.3046875 2.53125 C-36.06691988 0.47031327 -30.68586224 -0.05227042 -25.125 -0.6875 C-23.58779297 -0.88182617 -23.58779297 -0.88182617 -22.01953125 -1.08007812 C-4.73356746 -3.15571164 -4.73356746 -3.15571164 0 0 Z " fill="#F1E0FA" transform="translate(215,181)"/>
<path d="M0 0 C1.17219543 0.78345715 2.33763668 1.57702836 3.5 2.375 C4.47453125 3.03628906 4.47453125 3.03628906 5.46875 3.7109375 C5.9740625 4.13632813 6.479375 4.56171875 7 5 C7 5.66 7 6.32 7 7 C7.82371094 7.38671875 7.82371094 7.38671875 8.6640625 7.78125 C12.33210009 9.69500874 15.70571074 12.05506404 19.1484375 14.34375 C32.73344232 22.23421855 50.04677281 19.44291463 64.69433594 16.57250977 C73.09358201 14.92876591 81.48864227 13.85790874 90 13 C86.69164103 15.20557265 84.61502021 15.57819583 80.72265625 16.21875 C78.86930664 16.53392578 78.86930664 16.53392578 76.97851562 16.85546875 C75.04008789 17.17451172 75.04008789 17.17451172 73.0625 17.5 C70.51074884 17.92124957 67.95991378 18.34809682 65.41015625 18.78125 C64.27715088 18.96751953 63.14414551 19.15378906 61.97680664 19.34570312 C59.32015852 19.92962972 57.34001139 20.64835855 55 22 C55 22.66 55 23.32 55 24 C54.01 24 53.02 24 52 24 C52 23.34 52 22.68 52 22 C50.38544922 22.05220703 50.38544922 22.05220703 48.73828125 22.10546875 C29.00188199 22.55722208 16.51960288 17.37944152 2.01953125 4.13671875 C0 2 0 2 0 0 Z " fill="#8A9FF6" transform="translate(43,176)"/>
<path d="M0 0 C-3.56603219 3.83018272 -7.01706201 6.33902067 -12 8 C-12.69258229 9.99117408 -13.35747635 11.9921136 -14 14 C-14.9793879 15.02019573 -15.97895449 16.02149805 -17 17 C-17.67602221 18.66289392 -18.34044665 20.33050558 -19 22 C-20.45134659 24.95746099 -21.93538214 27.89438845 -23.43359375 30.828125 C-25.12446265 34.16632111 -26.67425896 37.50004365 -28 41 C-28.66 41 -29.32 41 -30 41 C-31.20737736 37.37786792 -30.74128279 36.80680062 -29.15625 33.46484375 C-28.73770752 32.57740479 -28.31916504 31.68996582 -27.88793945 30.77563477 C-27.42991943 29.83905029 -26.97189941 28.90246582 -26.5 27.9375 C-26.03875732 26.98609131 -25.57751465 26.03468262 -25.10229492 25.05444336 C-12.57633195 -0.3309561 -12.57633195 -0.3309561 0 0 Z " fill="#F5E1F4" transform="translate(193,0)"/>
<path d="M0 0 C0.66 0.33 1.32 0.66 2 1 C2.57836914 2.91772461 2.57836914 2.91772461 3.03515625 5.40234375 C3.20466797 6.29244141 3.37417969 7.18253906 3.54882812 8.09960938 C3.71833984 9.03611328 3.88785156 9.97261719 4.0625 10.9375 C4.40509958 12.78040553 4.75004013 14.62287787 5.09765625 16.46484375 C5.24726807 17.285896 5.39687988 18.10694824 5.55102539 18.95288086 C5.92362832 21.05160599 5.92362832 21.05160599 7 23 C7.07181821 25.71760108 7.09299506 28.40859388 7.0625 31.125 C7.05798828 31.87910156 7.05347656 32.63320313 7.04882812 33.41015625 C7.03703499 35.27347127 7.01909942 37.13674555 7 39 C7.66 39.33 8.32 39.66 9 40 C5.58823826 46.16741546 1.5933363 51.62782095 -4 56 C-7.5 57 -7.5 57 -10 57 C-8.78787551 53.36362652 -7.82899256 53.04324797 -4.625 51.125 C-0.16731204 48.25934346 2.29751127 45.9477401 3.55639648 40.6652832 C3.99610855 38.02338081 4.11407027 35.59345342 4.09765625 32.91796875 C4.09443359 31.98662109 4.09121094 31.05527344 4.08789062 30.09570312 C4.07951172 29.13599609 4.07113281 28.17628906 4.0625 27.1875 C4.05798828 26.20845703 4.05347656 25.22941406 4.04882812 24.22070312 C4.03708684 21.81373889 4.02066419 19.40690143 4 17 C3.34 16.67 2.68 16.34 2 16 C1.62109375 13.92578125 1.62109375 13.92578125 1.4375 11.3125 C1.13073473 7.49436792 0.69471053 3.77128572 0 0 Z " fill="#B794ED" transform="translate(316,295)"/>
<path d="M0 0 C8.07636941 6.85267707 12.51204017 17.20771526 16 27 C16.99 26.01 17.98 25.02 19 24 C18.88398438 25.93552734 18.88398438 25.93552734 18.765625 27.91015625 C18.76991532 33.39425939 20.47772959 37.51917445 22.75 42.4375 C23.4833268 44.10275281 24.21640216 45.76811636 24.94921875 47.43359375 C25.30290527 48.2210498 25.6565918 49.00850586 26.02099609 49.81982422 C27.23870254 52.53157448 28.41890272 55.25617473 29.5625 58 C29.87316406 58.721875 30.18382812 59.44375 30.50390625 60.1875 C31 62 31 62 30 65 C25.77259206 56.69095682 22.30099915 48.2898188 19.16210938 39.52148438 C17.67564757 35.40425566 17.67564757 35.40425566 15 32 C15 30.68 15 29.36 15 28 C14.34 28 13.68 28 13 28 C12.74605469 27.24074219 12.49210938 26.48148438 12.23046875 25.69921875 C11.88628906 24.70535156 11.54210937 23.71148438 11.1875 22.6875 C10.85105469 21.70136719 10.51460937 20.71523438 10.16796875 19.69921875 C9.03232248 17.07469845 8.017504 15.92783716 6 14 C5.3125 10.8125 5.3125 10.8125 5 8 C4.34 8 3.68 8 3 8 C0 2.25 0 2.25 0 0 Z " fill="#E48ED2" transform="translate(217,8)"/>
<path d="M0 0 C0.66 0 1.32 0 2 0 C1.88449154 2.02139807 1.75711059 4.04211906 1.625 6.0625 C1.55539063 7.18785156 1.48578125 8.31320312 1.4140625 9.47265625 C1 13 1 13 -0.0234375 16.36328125 C-1.19427979 20.72349792 -1.2946528 24.63739392 -1.25 29.125 C-1.25773437 29.91003906 -1.26546875 30.69507813 -1.2734375 31.50390625 C-1.25899747 35.78537609 -0.97496156 39.09709978 1 43 C1.66 43 2.32 43 3 43 C3 43.66 3 44.32 3 45 C3.99 45.33 4.98 45.66 6 46 C7.6875 49.0625 7.6875 49.0625 9 52 C5.19163075 50.45747973 3.01882086 48.10878844 0.3125 45.0625 C-0.47511719 44.18722656 -1.26273437 43.31195313 -2.07421875 42.41015625 C-5.34601192 38.31543742 -5.16211572 34.84716339 -5.1875 29.75 C-5.20167969 28.46609375 -5.21585937 27.1821875 -5.23046875 25.859375 C-4.99532192 21.92166192 -4.16587617 18.7567121 -3 15 C-2.39914201 12.36544347 -1.885369 9.71589801 -1.375 7.0625 C-1.17390625 6.03672852 -1.17390625 6.03672852 -0.96875 4.99023438 C-0.64314951 3.32734617 -0.32118656 1.66374639 0 0 Z " fill="#469DF5" transform="translate(81,296)"/>
<path d="M0 0 C6.13469524 0.10954813 9.53310533 1.33207601 13.98828125 5.5859375 C18.13723299 10.56467959 21.01449584 16.28307714 24 22 C24.54398438 22.97453125 25.08796875 23.9490625 25.6484375 24.953125 C26.11507812 25.81421875 26.58171875 26.6753125 27.0625 27.5625 C27.46597656 28.30628906 27.86945313 29.05007812 28.28515625 29.81640625 C29.17837979 32.5448869 28.76263072 34.27083725 28 37 C25.43665878 34.43665878 24.65896326 31.93050262 23.3125 28.5625 C18.87904063 17.90069192 14.47556026 9.52620767 3.6875 4.4375 C1 3 1 3 0 0 Z " fill="#F9DCF7" transform="translate(206,0)"/>
<path d="M0 0 C-2.76388147 1.52757636 -4.9872519 2.29625809 -8.12597656 2.59423828 C-8.92650452 2.67417023 -9.72703247 2.75410217 -10.55181885 2.8364563 C-11.40612488 2.91362885 -12.26043091 2.99080139 -13.140625 3.0703125 C-14.46389801 3.19924393 -14.46389801 3.19924393 -15.81390381 3.33078003 C-18.62527837 3.60297806 -21.43755433 3.86412573 -24.25 4.125 C-26.15892405 4.30786573 -28.06777931 4.49145107 -29.9765625 4.67578125 C-34.65028516 5.12553443 -39.32484665 5.56538155 -44 6 C-44 5.01 -44 4.02 -44 3 C-28.98252234 -0.23526328 -15.30531159 -1.45313588 0 0 Z " fill="#CDC8F4" transform="translate(80,109)"/>
<path d="M0 0 C0.6875 1.6875 0.6875 1.6875 1 4 C-0.25 6.3125 -0.25 6.3125 -2 9 C-3.56832389 12.4979148 -4.99346312 15.98233692 -6.32421875 19.578125 C-10.21888548 30.06805832 -14.84770373 39.1000886 -24 46 C-25.32 45.34 -26.64 44.68 -28 44 C-23.26315789 41.10526316 -23.26315789 41.10526316 -20.8125 40.125 C-18.24906499 38.53390241 -18.00368081 36.82285227 -17 34 C-16.01152072 32.24624644 -15.02194315 30.49295251 -14.0078125 28.75390625 C-10.82231574 23.21015414 -8.24101165 17.35920423 -6.02734375 11.3671875 C-5.51880859 10.00980469 -5.51880859 10.00980469 -5 8.625 C-4.690625 7.77164063 -4.38125 6.91828125 -4.0625 6.0390625 C-3 4 -3 4 0 3 C0 2.01 0 1.02 0 0 Z " fill="#C89DE6" transform="translate(157,60)"/>
<path d="M0 0 C0.99 0.33 1.98 0.66 3 1 C1.37660195 2.70884005 -0.29319053 4.37446717 -2 6 C-2.66 6 -3.32 6 -4 6 C-4 6.66 -4 7.32 -4 8 C-5.875 10.125 -5.875 10.125 -8 12 C-8.66 12 -9.32 12 -10 12 C-10.268125 12.53625 -10.53625 13.0725 -10.8125 13.625 C-11.67664887 15.35329774 -12.59752944 17.05357836 -13.55078125 18.734375 C-17.27906785 27.13558147 -15.17360044 36.99231857 -12.55859375 45.4765625 C-11.97735058 48.10231837 -12.11236806 49.49581982 -13 52 C-13.48198463 50.75108386 -13.96045677 49.50081192 -14.4375 48.25 C-14.70433594 47.55390625 -14.97117187 46.8578125 -15.24609375 46.140625 C-17.19107393 40.6180906 -17.2527718 35.43854497 -17.3125 29.625 C-17.34150391 28.69171875 -17.37050781 27.7584375 -17.40039062 26.796875 C-17.4544546 20.92469537 -16.84038105 17.70177493 -13 13 C-12.4225 11.824375 -11.845 10.64875 -11.25 9.4375 C-8.87890008 5.14285717 -5.17643574 3.31280881 -1 1 C-0.67 0.67 -0.34 0.34 0 0 Z " fill="#CF90E1" transform="translate(321,205)"/>
<path d="M0 0 C3.99648547 3.648965 4.28608015 7.16199781 4.5625 12.4375 C4.55402953 20.57762385 1.42464053 26.05250256 -4 32 C-4.66 32 -5.32 32 -6 32 C-6.20625 32.556875 -6.4125 33.11375 -6.625 33.6875 C-8.60413167 37.01603962 -10.84025696 38.74304069 -14 41 C-14.99 40.67 -15.98 40.34 -17 40 C-15.77023437 38.78763672 -15.77023437 38.78763672 -14.515625 37.55078125 C-13.42694863 36.47149002 -12.3384145 35.39205531 -11.25 34.3125 C-10.71117187 33.78205078 -10.17234375 33.25160156 -9.6171875 32.70507812 C-3.12684256 26.25430846 1.04130005 21.05173033 1.1875 11.5 C1.10046415 7.59677673 0.65470103 3.84636856 0 0 Z " fill="#E982C6" transform="translate(379,129)"/>
<path d="M0 0 C0.57468018 0.37302246 1.14936035 0.74604492 1.74145508 1.13037109 C-0.77811235 2.40376592 -3.29913141 3.67413751 -5.82104492 4.94287109 C-6.52551758 5.29929688 -7.22999023 5.65572266 -7.95581055 6.02294922 C-20.1146229 12.13037109 -20.1146229 12.13037109 -23.25854492 12.13037109 C-23.25854492 12.79037109 -23.25854492 13.45037109 -23.25854492 14.13037109 C-27.8388558 17.12518975 -27.8388558 17.12518975 -30.25854492 18.13037109 C-32.69604492 17.38037109 -32.69604492 17.38037109 -34.25854492 16.13037109 C-31.6214348 14.04932062 -29.07867693 12.44492266 -26.02807617 11.04443359 C-25.2243457 10.67060547 -24.42061523 10.29677734 -23.5925293 9.91162109 C-22.76043945 9.53005859 -21.92834961 9.14849609 -21.07104492 8.75537109 C-19.43027564 8.00069529 -17.79094467 7.24288443 -16.15307617 6.48193359 C-15.34435059 6.10713867 -14.535625 5.73234375 -13.70239258 5.34619141 C-10.43476 3.72053604 -7.3511816 1.82441007 -4.27294922 -0.13378906 C-2.25854492 -0.86962891 -2.25854492 -0.86962891 0 0 Z " fill="#C4CEFD" transform="translate(148.258544921875,222.86962890625)"/>
<path d="M0 0 C34.4036215 -1.54738927 34.4036215 -1.54738927 47.5625 9.375 C48.366875 10.24125 49.17125 11.1075 50 12 C49.67 13.32 49.34 14.64 49 16 C48.34 15.67 47.68 15.34 47 15 C46.61134766 13.81470703 46.61134766 13.81470703 46.21484375 12.60546875 C44.19713544 8.27810076 40.5227228 7.67442143 36.24609375 6.0625 C24.62826958 2.25979461 12.11280247 1.99697805 0 1 C0 0.67 0 0.34 0 0 Z " fill="#EF86CC" transform="translate(329,113)"/>
<path d="M0 0 C0 0.66 0 1.32 0 2 C-9.51726515 6.23372012 -20.79247886 5.13589895 -31 5 C-29 2 -29 2 -26.75683594 1.47583008 C-25.38446777 1.37371216 -25.38446777 1.37371216 -23.984375 1.26953125 C-22.47810547 1.14868164 -22.47810547 1.14868164 -20.94140625 1.02539062 C-19.88824219 0.95513672 -18.83507812 0.88488281 -17.75 0.8125 C-16.71230469 0.73064453 -15.67460938 0.64878906 -14.60546875 0.56445312 C-9.72976079 0.19394914 -4.89310283 -0.10967299 0 0 Z " fill="#D0C8F9" transform="translate(121,104)"/>
<path d="M0 0 C0.99 0.33 1.98 0.66 3 1 C2.23429687 1.41958984 2.23429687 1.41958984 1.453125 1.84765625 C-4.24292082 4.98856095 -9.83519249 8.27352103 -15.3984375 11.64453125 C-18 13 -18 13 -21 13 C-21.2578125 13.57234375 -21.515625 14.1446875 -21.78125 14.734375 C-23.11365942 17.21128995 -24.65056118 19.1341166 -26.5 21.25 C-27.1084375 21.95640625 -27.716875 22.6628125 -28.34375 23.390625 C-30 25 -30 25 -32 25 C-30.58732575 20.50512739 -28.46089404 18.15325902 -25 15 C-24.45988281 14.50242188 -23.91976562 14.00484375 -23.36328125 13.4921875 C-17.17457343 7.95711849 -10.76140916 4.84585003 -3 2 C-2.01 1.34 -1.02 0.68 0 0 Z " fill="#779EF6" transform="translate(125,236)"/>
<path d="M0 0 C2.58984375 1.9453125 2.58984375 1.9453125 3.58984375 3.9453125 C-0.08675144 3.387086 -2.5065228 2.41843697 -5.59765625 0.3828125 C-10.58503423 -2.49324214 -14.75936804 -2.81003821 -20.41015625 -2.0546875 C-23.87156165 -1.18368201 -23.87156165 -1.18368201 -26.41015625 -0.0546875 C-26.74015625 -0.7146875 -27.07015625 -1.3746875 -27.41015625 -2.0546875 C-19.65795982 -10.9697134 -8.04825746 -5.24028899 0 0 Z " fill="#CCCFFC" transform="translate(216.41015625,309.0546875)"/>
<path d="M0 0 C0.66 0 1.32 0 2 0 C2.01417969 0.66 2.02835937 1.32 2.04296875 2 C2.61634666 13.90146582 5.42592369 25.40034702 8 37 C7.01 37.495 7.01 37.495 6 38 C5.26366638 35.79099913 4.528034 33.58181506 3.796875 31.37109375 C3.184854 29.55003126 2.53744795 27.74083053 1.875 25.9375 C-0.64015596 17.49376214 -0.10215505 8.71723119 0 0 Z " fill="#F6E2FC" transform="translate(306,228)"/>
<path d="M0 0 C0.33 0 0.66 0 1 0 C0.98952637 0.75095947 0.97905273 1.50191895 0.96826172 2.27563477 C0.92648109 5.70455529 0.90060378 9.13342207 0.875 12.5625 C0.85824219 13.74392578 0.84148437 14.92535156 0.82421875 16.14257812 C0.7905415 22.15396759 0.88961106 27.34183122 3 33 C0 32 0 32 -1.6875 29.1875 C-5.32983454 19.72513885 -2.54315581 9.38545598 0 0 Z " fill="#DEF4FB" transform="translate(76,307)"/>
<path d="M0 0 C0 0.33 0 0.66 0 1 C-5.28 1.66 -10.56 2.32 -16 3 C-16.33 4.65 -16.66 6.3 -17 8 C-17.68964844 7.7628125 -18.37929687 7.525625 -19.08984375 7.28125 C-23.03252753 6.9002121 -25.33774491 8.48014783 -28.5625 10.5 C-29.16658691 10.86222656 -29.77067383 11.22445313 -30.39306641 11.59765625 C-31.64478285 12.3486207 -32.89314777 13.10519836 -34.13818359 13.8671875 C-37.02456938 15.62339391 -39.95093659 17.30730374 -42.875 19 C-44.58371273 19.99935157 -46.29219907 20.99909103 -48 22 C-48.33 21.34 -48.66 20.68 -49 20 C-48.14019531 19.5153125 -47.28039062 19.030625 -46.39453125 18.53125 C-45.20025024 17.85464407 -44.00626272 17.17751995 -42.8125 16.5 C-42.18045654 16.14196289 -41.54841309 15.78392578 -40.8972168 15.41503906 C-37.74276781 13.6151915 -34.62195772 11.78575005 -31.5625 9.828125 C-21.08567075 3.12899861 -12.60393159 -0.87764321 0 0 Z " fill="#6B9AF6" transform="translate(206,302)"/>
<path d="M0 0 C0.99 0 1.98 0 3 0 C3 0.66 3 1.32 3 2 C3.66 1.67 4.32 1.34 5 1 C11.96489343 -0.1040242 18.9669491 -0.12033737 26 0 C26 0.33 26 0.66 26 1 C25.2886792 1.08040527 24.5773584 1.16081055 23.84448242 1.24365234 C20.62446447 1.61239082 17.40603508 1.99354399 14.1875 2.375 C13.06794922 2.50132813 11.94839844 2.62765625 10.79492188 2.7578125 C9.18520508 2.95117188 9.18520508 2.95117188 7.54296875 3.1484375 C6.55321045 3.26364746 5.56345215 3.37885742 4.54370117 3.49755859 C1.77002867 3.87673819 1.77002867 3.87673819 -1 6 C-1.99 6 -2.98 6 -4 6 C-4 6.66 -4 7.32 -4 8 C-5.66666667 9.66666667 -7.33333333 11.33333333 -9 13 C-10.75264204 15.28317152 -12.37027685 17.62526056 -14 20 C-14.76171875 18.31640625 -14.76171875 18.31640625 -15 16 C-13.26953125 13.52734375 -13.26953125 13.52734375 -10.8125 10.9375 C-9.61560547 9.65166016 -9.61560547 9.65166016 -8.39453125 8.33984375 C-5.36433232 5.37885002 -3.03380496 3.34460165 1 2 C0.67 1.34 0.34 0.68 0 0 Z " fill="#A2A8F6" transform="translate(33,113)"/>
<path d="M0 0 C7.0163027 0.57812232 14.09412573 0.32611134 21.12890625 0.2578125 C20.79890625 1.2478125 20.46890625 2.2378125 20.12890625 3.2578125 C11.25247594 4.73721755 2.86830605 4.64128517 -5.87109375 2.2578125 C-6.53109375 1.5978125 -7.19109375 0.9378125 -7.87109375 0.2578125 C-5.10984853 -1.12281011 -2.97505888 -0.38229752 0 0 Z " fill="#E5DBFC" transform="translate(74.87109375,196.7421875)"/>
<path d="M0 0 C0 0.66 0 1.32 0 2 C-4.3958194 2.02907584 -8.79161399 2.0468244 -13.1875 2.0625 C-14.43337891 2.07087891 -15.67925781 2.07925781 -16.96289062 2.08789062 C-18.7659668 2.09272461 -18.7659668 2.09272461 -20.60546875 2.09765625 C-21.71043701 2.10289307 -22.81540527 2.10812988 -23.95385742 2.11352539 C-26.75799379 2.00901923 -29.27417329 1.64097959 -32 1 C-32 0.67 -32 0.34 -32 0 C-21.32452146 -1.4724798 -10.67547854 -1.4724798 0 0 Z " fill="#E8CFF8" transform="translate(307,106)"/>
<path d="M0 0 C0.83700439 0.20568604 0.83700439 0.20568604 1.69091797 0.41552734 C9.16302599 2.09521031 16.48663967 2.42872522 24.125 2.625 C25.98898437 2.68300781 25.98898437 2.68300781 27.890625 2.7421875 C30.92694319 2.83561268 33.9632685 2.92138119 37 3 C37.33 2.34 37.66 1.68 38 1 C38.495 1.99 38.495 1.99 39 3 C41.57951874 3.69093896 41.57951874 3.69093896 44.5625 4.125 C45.57441406 4.29257813 46.58632813 4.46015625 47.62890625 4.6328125 C48.41136719 4.75398438 49.19382812 4.87515625 50 5 C50 5.33 50 5.66 50 6 C49.04222656 5.9278125 48.08445312 5.855625 47.09765625 5.78125 C39.78185563 5.26114738 32.52296736 4.93624932 25.1875 5 C6.61416398 5.11150734 6.61416398 5.11150734 0 1 C0 0.67 0 0.34 0 0 Z " fill="#ECA8E2" transform="translate(270,105)"/>
<path d="M0 0 C0.99 0.33 1.98 0.66 3 1 C0.62893643 7.16476527 -3.75946421 12.02989713 -9 16 C-12.29296875 16.76171875 -12.29296875 16.76171875 -15 17 C-13.79275707 13.3782712 -12.95544666 13.16465378 -9.75 11.3125 C-4.9902012 8.2987199 -2.51495386 4.97935589 0 0 Z " fill="#DFCAFB" transform="translate(321,335)"/>
<path d="M0 0 C-3.56603219 3.83018272 -7.01706201 6.33902067 -12 8 C-12.67939174 9.99571323 -13.34561559 11.99594773 -14 14 C-14.99 14.66 -15.98 15.32 -17 16 C-17.76171875 14.3203125 -17.76171875 14.3203125 -18 12 C-16.26953125 9.4921875 -16.26953125 9.4921875 -13.8125 6.875 C-13.01457031 6.00617187 -12.21664062 5.13734375 -11.39453125 4.2421875 C-7.62166793 0.70935953 -5.15091364 -0.28616187 0 0 Z " fill="#F8D9F6" transform="translate(193,0)"/>
<path d="M0 0 C0.33 0.99 0.66 1.98 1 3 C0.21753906 3.48210937 -0.56492188 3.96421875 -1.37109375 4.4609375 C-2.88896484 5.40839844 -2.88896484 5.40839844 -4.4375 6.375 C-5.44683594 7.00148437 -6.45617187 7.62796875 -7.49609375 8.2734375 C-10.08011063 9.75816302 -10.08011063 9.75816302 -11 12 C-13.64860427 12.59355614 -16.29197322 12.74209269 -19 13 C-19 12.34 -19 11.68 -19 11 C-17.87980469 10.37351563 -16.75960937 9.74703125 -15.60546875 9.1015625 C-14.13277713 8.27610477 -12.66012282 7.45058046 -11.1875 6.625 C-10.44951172 6.2125 -9.71152344 5.8 -8.95117188 5.375 C-8.23896484 4.97539062 -7.52675781 4.57578125 -6.79296875 4.1640625 C-6.1383667 3.79748535 -5.48376465 3.4309082 -4.80932617 3.05322266 C-3.16823694 2.09793201 -1.5799656 1.0533104 0 0 Z " fill="#DFD8FC" transform="translate(214,187)"/>
<path d="M0 0 C0.66 0 1.32 0 2 0 C2.25394531 0.73605469 2.50789062 1.47210938 2.76953125 2.23046875 C3.11371094 3.20628906 3.45789063 4.18210937 3.8125 5.1875 C4.14894531 6.15042969 4.48539063 7.11335938 4.83203125 8.10546875 C5.91617762 11.0357014 5.91617762 11.0357014 7.63671875 13.61328125 C9 16 9 16 9 20 C9.66 20 10.32 20 11 20 C11.93637414 21.43800315 12.86960101 22.87822737 13.78125 24.33203125 C15.78725325 27.07742673 18.31921165 28.92848173 21 31 C20.01 31.33 19.02 31.66 18 32 C18 31.34 18 30.68 18 30 C16.8553125 29.6596875 16.8553125 29.6596875 15.6875 29.3125 C12.4246973 27.71903821 11.53739291 26.23661664 10 23 C10 22.34 10 21.68 10 21 C9.34 21 8.68 21 8 21 C8 19.68 8 18.36 8 17 C7.34 17 6.68 17 6 17 C4.99580363 14.5433053 3.99649499 12.08481647 3 9.625 C2.71382812 8.92632812 2.42765625 8.22765625 2.1328125 7.5078125 C0 2.2265625 0 2.2265625 0 0 Z " fill="#DE90D6" transform="translate(248,73)"/>
<path d="M0 0 C0.66 0 1.32 0 2 0 C2.03738281 0.88042969 2.07476563 1.76085937 2.11328125 2.66796875 C2.17902344 3.82941406 2.24476562 4.99085938 2.3125 6.1875 C2.37050781 7.33605469 2.42851562 8.48460937 2.48828125 9.66796875 C3.02459867 13.160173 4.13500575 15.05884661 6 18 C5.67 18.66 5.34 19.32 5 20 C0.33390438 16.07065632 -1.18453801 12.86187167 -2 7 C-2.125 4 -2.125 4 -2 2 C-1.34 2 -0.68 2 0 2 C0 1.34 0 0.68 0 0 Z " fill="#C4CAF6" transform="translate(15,137)"/>
<path d="M0 0 C1.07138687 3.29760194 0.90279404 5.60429626 0.22265625 8.984375 C-0.05288086 10.38623047 -0.05288086 10.38623047 -0.33398438 11.81640625 C-0.53314453 12.78449219 -0.73230469 13.75257813 -0.9375 14.75 C-1.13279297 15.73355469 -1.32808594 16.71710938 -1.52929688 17.73046875 C-2.01190558 20.15528321 -2.50238859 22.57822773 -3 25 C-3.33 25 -3.66 25 -4 25 C-5.24556591 16.53615454 -5.11312666 9.07767225 -2 1 C-1.34 0.67 -0.68 0.34 0 0 Z " fill="#C4DFFA" transform="translate(81,292)"/>
<path d="M0 0 C-1.10874958 3.32624874 -1.45665697 3.57359199 -4.30859375 5.26171875 C-4.97310547 5.65810547 -5.63761719 6.05449219 -6.32226562 6.46289062 C-7.02029297 6.86701172 -7.71832031 7.27113281 -8.4375 7.6875 C-9.13166016 8.10322266 -9.82582031 8.51894531 -10.54101562 8.94726562 C-15.71913485 12 -15.71913485 12 -18 12 C-17.67 11.01 -17.34 10.02 -17 9 C-16.01 9 -15.02 9 -14 9 C-13.979375 8.4225 -13.95875 7.845 -13.9375 7.25 C-12.4625771 3.71018504 -9.32814473 2.52539967 -6 1 C-3.79968258 0.28638354 -2.29443419 0 0 0 Z " fill="#BDDEFD" transform="translate(157,326)"/>
<path d="M0 0 C0.33 0 0.66 0 1 0 C1.37542732 5.13083998 0.18632832 8.38441799 -2 13 C-2.56805373 14.3101059 -3.13076475 15.62254435 -3.6875 16.9375 C-4.120625 17.948125 -4.55375 18.95875 -5 20 C-5.66 20 -6.32 20 -7 20 C-6.22225866 14.94468132 -5.14051606 9.98283716 -4 5 C-4.66 4.67 -5.32 4.34 -6 4 C-5.01 3.67 -4.02 3.34 -3 3 C-3 3.66 -3 4.32 -3 5 C-2.34 5 -1.68 5 -1 5 C-0.67 3.35 -0.34 1.7 0 0 Z " fill="#D3A6D5" transform="translate(166,36)"/>
<path d="M0 0 C2.86347639 4.29521458 2.72852834 7.95688635 2 13 C0.6285023 16.52192965 -1.06729326 19.75581369 -3 23 C-3.99 22.67 -4.98 22.34 -6 22 C-5.01845356 19.35737498 -4.04472428 17.06663006 -2.46875 14.71875 C-0.76150534 11.55853116 -0.5085589 9.25577196 -0.3125 5.6875 C-0.24675781 4.61886719 -0.18101562 3.55023438 -0.11328125 2.44921875 C-0.07589844 1.64097656 -0.03851563 0.83273438 0 0 Z " fill="#FEE1FA" transform="translate(384,135)"/>
<path d="M0 0 C0 0.66 0 1.32 0 2 C-6.64248536 3.91610155 -13.11059329 4.56367091 -20 5 C-20 4.01 -20 3.02 -20 2 C-13.2168636 0.57997892 -6.93302093 -0.22731216 0 0 Z " fill="#E3E3FA" transform="translate(56,110)"/>
<path d="M0 0 C0.99 1.0209375 0.99 1.0209375 2 2.0625 C7.97167165 8.23960743 7.97167165 8.23960743 15 13 C15 13.66 15 14.32 15 15 C10.41541151 14.50436881 8.08951837 12.79417644 4.6875 9.75 C3.80449219 8.98171875 2.92148438 8.2134375 2.01171875 7.421875 C0 5 0 5 -0.29296875 2.203125 C-0.19628906 1.47609375 -0.09960938 0.7490625 0 0 Z " fill="#C7DEFB" transform="translate(78,337)"/>
<path d="M0 0 C2.8961496 0.3097647 5.79189576 0.62271188 8.6875 0.9375 C9.50412109 1.02451172 10.32074219 1.11152344 11.16210938 1.20117188 C15.15450219 1.63758728 19.07652852 2.11302376 23 3 C23.33 3.99 23.66 4.98 24 6 C16.74 5.01 9.48 4.02 2 3 C2 2.34 2 1.68 2 1 C1.34 0.67 0.68 0.34 0 0 Z " fill="#FDD6FA" transform="translate(338,109)"/>
<path d="M0 0 C0.33 0.99 0.66 1.98 1 3 C-6.92 3.495 -6.92 3.495 -15 4 C-15 3.67 -15 3.34 -15 3 C-17.97 2.67 -20.94 2.34 -24 2 C-24 1.67 -24 1.34 -24 1 C-15.98866917 0.40891367 -8.03770278 -0.14101233 0 0 Z " fill="#C7C2F9" transform="translate(91,107)"/>
<path d="M0 0 C0.6875 1.6875 0.6875 1.6875 1 4 C-0.25 6.3125 -0.25 6.3125 -2 9 C-2.73744866 10.66727523 -3.47306475 12.33569591 -4.171875 14.01953125 C-5.14275313 16.34139546 -6.16271399 18.63894827 -7.1875 20.9375 C-7.53167969 21.70964844 -7.87585938 22.48179688 -8.23046875 23.27734375 C-8.48441406 23.84582031 -8.73835937 24.41429688 -9 25 C-10.16703231 21.33218416 -9.61766552 19.56621524 -7.95703125 16.078125 C-6.45346292 12.81323377 -5.28713484 9.4170136 -4.0625 6.0390625 C-3 4 -3 4 0 3 C0 2.01 0 1.02 0 0 Z " fill="#CA95E1" transform="translate(157,60)"/>
<path d="M0 0 C0.33 0 0.66 0 1 0 C0.37679879 6.43974581 -0.64008262 12.67572401 -2 19 C-2.66 19 -3.32 19 -4 19 C-4 19.99 -4 20.98 -4 22 C-4.66 22 -5.32 22 -6 22 C-5.34 19.36 -4.68 16.72 -4 14 C-4.66 13.67 -5.32 13.34 -6 13 C-4.02 8.71 -2.04 4.42 0 0 Z " fill="#D7B2DD" transform="translate(161,41)"/>
<path d="M0 0 C3.1456381 6.29127621 3.40070622 12.0465685 3 19 C2.67 19.99 2.34 20.98 2 22 C1.34 22 0.68 22 0 22 C0 14.74 0 7.48 0 0 Z " fill="#F4DDFC" transform="translate(323,312)"/>
<path d="M0 0 C0.66 0 1.32 0 2 0 C3.20183475 2.57750095 4.38656886 5.16071162 5.5625 7.75 C5.90474609 8.47960938 6.24699219 9.20921875 6.59960938 9.9609375 C6.91865234 10.66992188 7.23769531 11.37890625 7.56640625 12.109375 C8.01415405 13.08342285 8.01415405 13.08342285 8.47094727 14.07714844 C9.10866223 16.39493481 8.75542816 17.74904303 8 20 C5.43510286 16.87097592 3.86465821 13.72890861 2.3125 10 C1.87550781 8.96875 1.43851563 7.9375 0.98828125 6.875 C0 4 0 4 0 0 Z " fill="#F7D8F2" transform="translate(235,37)"/>
<path d="M0 0 C7.26153846 0.36923077 7.26153846 0.36923077 11 3.5625 C11.99 4.7690625 11.99 4.7690625 13 6 C12.67 6.66 12.34 7.32 12 8 C8.20608095 6.54938389 4.53496333 5.00850189 1 3 C0.67 2.01 0.34 1.02 0 0 Z " fill="#F4BBEF" transform="translate(206,0)"/>
<path d="M0 0 C0.66 0.33 1.32 0.66 2 1 C0.91460937 1.67546875 -0.17078125 2.3509375 -1.2890625 3.046875 C-2.73440537 3.94786796 -4.17971616 4.84891236 -5.625 5.75 C-6.33785156 6.1934375 -7.05070312 6.636875 -7.78515625 7.09375 C-11.03073193 9.11851281 -14.2486704 11.15679619 -17.3984375 13.328125 C-20 15 -20 15 -22 15 C-22 15.66 -22 16.32 -22 17 C-22.66 16.67 -23.32 16.34 -24 16 C-19.74423108 11.20896942 -14.85126846 8.2804702 -9.3125 5.125 C-8.44560547 4.61453125 -7.57871094 4.1040625 -6.68554688 3.578125 C-5.85732422 3.10117187 -5.02910156 2.62421875 -4.17578125 2.1328125 C-3.42208252 1.69855957 -2.66838379 1.26430664 -1.8918457 0.81689453 C-1.26753662 0.54731934 -0.64322754 0.27774414 0 0 Z " fill="#5099F9" transform="translate(155,323)"/>
<path d="M0 0 C4.29 0.66 8.58 1.32 13 2 C12.34 3.32 11.68 4.64 11 6 C2.42857143 5.14285714 2.42857143 5.14285714 -1 3 C-0.67 2.01 -0.34 1.02 0 0 Z " fill="#ADC3FB" transform="translate(93,350)"/>
<path d="M0 0 C0.33 0 0.66 0 1 0 C1.03738281 0.87140625 1.07476562 1.7428125 1.11328125 2.640625 C1.51381109 9.89728327 2.39503657 16.50631512 4.4765625 23.4765625 C5.01844762 26.08893404 4.87589042 27.51247122 4 30 C3.51801537 28.75108386 3.03954323 27.50081192 2.5625 26.25 C2.29566406 25.55390625 2.02882813 24.8578125 1.75390625 24.140625 C0.49847736 20.57598754 -0.12470658 17.45892087 -0.09765625 13.671875 C-0.09282227 12.47304687 -0.09282227 12.47304687 -0.08789062 11.25 C-0.07951172 10.425 -0.07113281 9.6 -0.0625 8.75 C-0.05798828 7.90953125 -0.05347656 7.0690625 -0.04882812 6.203125 C-0.03707961 4.13538599 -0.01914522 2.06768376 0 0 Z " fill="#C299EA" transform="translate(304,227)"/>
<path d="M0 0 C-2.70069428 1.49343624 -5.41172375 2.96706493 -8.125 4.4375 C-8.88554687 4.85837891 -9.64609375 5.27925781 -10.4296875 5.71289062 C-14.6329689 7.97758965 -18.15850255 9.57462882 -23 10 C-19.81713341 6.57088745 -16.20126299 4.82493937 -12.0625 2.75 C-11.34642578 2.37359375 -10.63035156 1.9971875 -9.89257812 1.609375 C-9.19712891 1.25875 -8.50167969 0.908125 -7.78515625 0.546875 C-7.15488525 0.22557617 -6.52461426 -0.09572266 -5.87524414 -0.42675781 C-3.57055266 -1.13127748 -2.25148209 -0.7618195 0 0 Z " fill="#8CA2F8" transform="translate(154,224)"/>
<path d="M0 0 C3.63407163 1.35706804 6.87012067 2.99250872 10.1875 5 C11.04730469 5.515625 11.90710938 6.03125 12.79296875 6.5625 C15 8 15 8 17 10 C14 11 14 11 11.1875 9.671875 C10.135625 9.03765625 9.08375 8.4034375 8 7.75 C6.948125 7.12609375 5.89625 6.5021875 4.8125 5.859375 C2.54560228 4.36070373 0.79110908 3.01499772 -1 1 C-0.67 0.67 -0.34 0.34 0 0 Z " fill="#DEE5FB" transform="translate(52,187)"/>
<path d="M0 0 C0.1875 2.625 0.1875 2.625 0 5 C-0.66 5 -1.32 5 -2 5 C-2.33 4.01 -2.66 3.02 -3 2 C-5.9615696 0.5192152 -8.83506295 0.64685963 -12.125 0.4375 C-13.40632812 0.35371094 -14.68765625 0.26992187 -16.0078125 0.18359375 C-17.48894531 0.09271484 -17.48894531 0.09271484 -19 0 C-19 -0.33 -19 -0.66 -19 -1 C-12.75592854 -2.31454136 -5.47688716 -3.65125811 0 0 Z " fill="#E3D0F9" transform="translate(215,181)"/>
<path d="M0 0 C0.99 0.33 1.98 0.66 3 1 C-2.94 6.445 -2.94 6.445 -9 12 C-9.99 11.67 -10.98 11.34 -12 11 C-9.32203864 7.3302011 -6.93578681 5.22018743 -3 3 C-1.24850835 1.41754725 -1.24850835 1.41754725 0 0 Z " fill="#E186CD" transform="translate(361,170)"/>
<path d="M0 0 C0.33 0 0.66 0 1 0 C0.96519531 0.58007812 0.93039063 1.16015625 0.89453125 1.7578125 C0.71094549 7.05557304 1.25896642 10.31740097 4 15 C4 15.66 4 16.32 4 17 C3.01 16.67 2.02 16.34 1 16 C-0.96361202 12.07277596 -2.34197179 8.3429862 -3 4 C-3.66 4 -4.32 4 -5 4 C-4.67 3.01 -4.34 2.02 -4 1 C-2.515 1.99 -2.515 1.99 -1 3 C-0.67 2.01 -0.34 1.02 0 0 Z " fill="#DE9DD0" transform="translate(235,32)"/>
<path d="M0 0 C-1 3 -1 3 -2.953125 4.828125 C-5.38785091 7.41153646 -5.93409964 9.3232185 -6.75 12.75 C-6.99234375 13.73484375 -7.2346875 14.7196875 -7.484375 15.734375 C-7.73960938 16.85585938 -7.73960938 16.85585938 -8 18 C-8.33 18 -8.66 18 -9 18 C-9.54122907 11.77586566 -8.12101205 6.44872338 -5 1 C-2 0 -2 0 0 0 Z " fill="#4996F7" transform="translate(97,260)"/>
<path d="M0 0 C3.0390625 -0.29296875 3.0390625 -0.29296875 6.625 -0.1875 C7.81351563 -0.16042969 9.00203125 -0.13335938 10.2265625 -0.10546875 C11.14179688 -0.07066406 12.05703125 -0.03585937 13 0 C13 1.32 13 2.64 13 4 C11.515 3.7525 11.515 3.7525 10 3.5 C5.97267058 2.91525483 2.06525377 2.92867976 -2 3 C-1.34 2.01 -0.68 1.02 0 0 Z " fill="#FC99E0" transform="translate(193,0)"/>
<path d="M0 0 C-3.00950123 1.61725534 -5.97103608 2.67582623 -9.25 3.625 C-10.58804688 4.01558594 -10.58804688 4.01558594 -11.953125 4.4140625 C-12.62859375 4.60742188 -13.3040625 4.80078125 -14 5 C-14 4.34 -14 3.68 -14 3 C-15.98 3 -17.96 3 -20 3 C-13.8786682 -0.39920457 -6.85124296 -0.14577113 0 0 Z " fill="#D9CFF7" transform="translate(194,181)"/>
<path d="M0 0 C-1.04800781 0.93972656 -1.04800781 0.93972656 -2.1171875 1.8984375 C-3.02726563 2.71570313 -3.93734375 3.53296875 -4.875 4.375 C-5.77992188 5.18710938 -6.68484375 5.99921875 -7.6171875 6.8359375 C-9.10896183 8.19076205 -10.57505435 9.57505435 -12 11 C-11.63265306 4.63265306 -11.63265306 4.63265306 -8.625 1.625 C-3.9 -1.3 -3.9 -1.3 0 0 Z " fill="#EC8BD6" transform="translate(192,4)"/>
<path d="M0 0 C0.33 0 0.66 0 1 0 C1.11381955 6.76594019 0.88021369 13.28837062 0 20 C-0.33 20 -0.66 20 -1 20 C-1 18.02 -1 16.04 -1 14 C-1.66 13.67 -2.32 13.34 -3 13 C-2.01 8.71 -1.02 4.42 0 0 Z " fill="#CCF0FE" transform="translate(76,307)"/>
<path d="M0 0 C0.66 0.33 1.32 0.66 2 1 C0.56877218 2.48523642 -0.87020889 3.96300462 -2.3125 5.4375 C-3.11300781 6.26121094 -3.91351563 7.08492187 -4.73828125 7.93359375 C-7 10 -7 10 -10 11 C-8.60506348 6.56156561 -6.48101799 4.0565036 -3 1 C-2.01 0.67 -1.02 0.34 0 0 Z " fill="#F9D2FB" transform="translate(328,203)"/>
<path d="M0 0 C0.66 1.32 1.32 2.64 2 4 C-0.31 6.64 -2.62 9.28 -5 12 C-6 8 -6 8 -5 6 C-4.34 6 -3.68 6 -3 6 C-2.690625 5.195625 -2.38125 4.39125 -2.0625 3.5625 C-1 1 -1 1 0 0 Z " fill="#F7C3EF" transform="translate(378,155)"/>
<path d="M0 0 C2.49361571 1.20381448 4.68143083 2.45428722 7 4 C9.21584546 4.44703234 11.44841961 4.81463242 13.6875 5.125 C14.86699219 5.29257812 16.04648438 5.46015625 17.26171875 5.6328125 C18.61716797 5.81457031 18.61716797 5.81457031 20 6 C20 6.33 20 6.66 20 7 C18.10448978 7.05441656 16.2085208 7.09298035 14.3125 7.125 C13.25675781 7.14820313 12.20101562 7.17140625 11.11328125 7.1953125 C7.92652877 6.99539076 5.82116792 6.4701861 3 5 C1.1875 2.375 1.1875 2.375 0 0 Z " fill="#3498F9" transform="translate(87,344)"/>
<path d="M0 0 C6.16529701 0.31616908 10.17268433 3.49215061 15 7 C12 8 12 8 9.08203125 6.6015625 C8.00308594 5.94929688 6.92414063 5.29703125 5.8125 4.625 C4.72582031 3.97789062 3.63914063 3.33078125 2.51953125 2.6640625 C1.68808594 2.11492187 0.85664063 1.56578125 0 1 C0 0.67 0 0.34 0 0 Z " fill="#DCE2FD" transform="translate(205,305)"/>
<path d="M0 0 C0 0.33 0 0.66 0 1 C-5.28 1.66 -10.56 2.32 -16 3 C-16.33 4.65 -16.66 6.3 -17 8 C-17.66 7.67 -18.32 7.34 -19 7 C-19 5.68 -19 4.36 -19 3 C-12.47059106 0.04328652 -7.12600133 -0.35368021 0 0 Z " fill="#8AA0F9" transform="translate(206,302)"/>
<path d="M0 0 C2.96656949 5.49687876 4.4036063 11.74410231 4 18 C3.34 18 2.68 18 2 18 C0.59545452 11.88019467 -0.23268915 6.28260706 0 0 Z " fill="#BB90EB" transform="translate(311,268)"/>
<path d="M0 0 C0 0.66 0 1.32 0 2 C-6.5 5 -6.5 5 -11 5 C-10 2 -10 2 -8.3125 0.8125 C-5.45030907 -0.19313465 -3.01172092 -0.13689641 0 0 Z " fill="#C4E2FE" transform="translate(116,350)"/>
<path d="M0 0 C0.66 0 1.32 0 2 0 C0.63746417 3.11824121 -0.85108253 5.04737351 -3.4375 7.25 C-4.33275391 8.03117188 -4.33275391 8.03117188 -5.24609375 8.828125 C-7 10 -7 10 -10 10 C-10 9.34 -10 8.68 -10 8 C-8.06640625 6.30859375 -8.06640625 6.30859375 -5.5625 4.4375 C-2.67307373 2.34532911 -2.67307373 2.34532911 0 0 Z " fill="#D587D6" transform="translate(332,195)"/>
<path d="M0 0 C-1.56116819 0.33951619 -3.12401338 0.67132544 -4.6875 1 C-5.99267578 1.2784375 -5.99267578 1.2784375 -7.32421875 1.5625 C-9.93712964 1.98972047 -12.35813038 2.07616201 -15 2 C-15 2.99 -15 3.98 -15 5 C-15.66 5 -16.32 5 -17 5 C-17 4.34 -17 3.68 -17 3 C-18.65 3 -20.3 3 -22 3 C-18.4545337 0.89931122 -15.05365912 0.38361935 -11 -0.1875 C-9.1746875 -0.45626953 -9.1746875 -0.45626953 -7.3125 -0.73046875 C-4.45458405 -0.96301144 -2.66256967 -0.93855581 0 0 Z " fill="#CFC4F8" transform="translate(172,185)"/>
<path d="M0 0 C0.70640625 0.05220703 1.4128125 0.10441406 2.140625 0.15820312 C3.88579987 0.28791207 5.63045725 0.42454954 7.375 0.5625 C3.78037669 2.82248595 0.80904325 2.77118087 -3.375 2.6875 C-4.54546875 2.66945313 -5.7159375 2.65140625 -6.921875 2.6328125 C-8.25992188 2.59800781 -8.25992188 2.59800781 -9.625 2.5625 C-9.625 1.9025 -9.625 1.2425 -9.625 0.5625 C-6.5270403 -0.98647985 -3.36283448 -0.26989539 0 0 Z " fill="#E5E4FB" transform="translate(72.625,108.4375)"/>
<path d="M0 0 C3.79391905 1.45061611 7.46503667 2.99149811 11 5 C11.33 5.99 11.66 6.98 12 8 C8.83548038 7.36567062 6.48312221 6.26817072 3.75 4.5625 C3.04359375 4.13066406 2.3371875 3.69882812 1.609375 3.25390625 C1.07828125 2.84011719 0.5471875 2.42632812 0 2 C0 1.34 0 0.68 0 0 Z " fill="#E3E2FA" transform="translate(221,313)"/>
<path d="M0 0 C1 2 1 2 0.22265625 4.6015625 C-0.16019531 5.59929687 -0.54304688 6.59703125 -0.9375 7.625 C-1.31777344 8.62789063 -1.69804688 9.63078125 -2.08984375 10.6640625 C-2.39019531 11.43492187 -2.69054687 12.20578125 -3 13 C-3.99 13 -4.98 13 -6 13 C-5.38416344 11.01796291 -4.75706166 9.0394228 -4.125 7.0625 C-3.77695313 5.96035156 -3.42890625 4.85820312 -3.0703125 3.72265625 C-2 1 -2 1 0 0 Z " fill="#DCF2FE" transform="translate(89,263)"/>
<path d="M0 0 C0.33 0.99 0.66 1.98 1 3 C-5.5 7 -5.5 7 -10 7 C-10 6.34 -10 5.68 -10 5 C-6.7 3.35 -3.4 1.7 0 0 Z " fill="#DEDDFD" transform="translate(181,205)"/>
<path d="M0 0 C1.81325551 0.11351517 3.62563357 0.24112961 5.4375 0.375 C6.95150391 0.47941406 6.95150391 0.47941406 8.49609375 0.5859375 C9.73552734 0.79089844 9.73552734 0.79089844 11 1 C11.33 1.66 11.66 2.32 12 3 C7.38 3 2.76 3 -2 3 C-1.34 2.01 -0.68 1.02 0 0 Z " fill="#E2DCFA" transform="translate(92,106)"/>
<path d="M0 0 C-1.49097658 3.7952131 -3.75700849 5.61042731 -7 8 C-8.32 7.34 -9.64 6.68 -11 6 C-10.2575 5.566875 -9.515 5.13375 -8.75 4.6875 C-6.03331818 3.08762968 -6.03331818 3.08762968 -3.8125 1.3125 C-2 0 -2 0 0 0 Z " fill="#BE9CEC" transform="translate(140,98)"/>
<path d="M0 0 C-2 3 -2 3 -4.3828125 3.73046875 C-5.74019531 3.95669922 -5.74019531 3.95669922 -7.125 4.1875 C-8.49011719 4.42533203 -8.49011719 4.42533203 -9.8828125 4.66796875 C-10.58148438 4.77753906 -11.28015625 4.88710937 -12 5 C-11 2 -11 2 -9.2578125 1.015625 C-8.55398437 0.76296875 -7.85015625 0.5103125 -7.125 0.25 C-6.07699219 -0.14445312 -6.07699219 -0.14445312 -5.0078125 -0.546875 C-3 -1 -3 -1 0 0 Z " fill="#E2DEF9" transform="translate(134,101)"/>
<path d="M0 0 C1.0209375 0.433125 1.0209375 0.433125 2.0625 0.875 C5.32893093 2.12597355 8.62846123 3.07447955 12 4 C11.67 4.99 11.34 5.98 11 7 C6.96678237 5.78065514 3.45730521 4.44045073 0 2 C0 1.34 0 0.68 0 0 Z " fill="#E8E4FD" transform="translate(275,345)"/>
<path d="M0 0 C0.33 0 0.66 0 1 0 C1.14285714 7.42857143 1.14285714 7.42857143 0 11 C-0.66 11 -1.32 11 -2 11 C-2.33 11.66 -2.66 12.32 -3 13 C-3.38281159 7.76824163 -2.21854707 4.62197306 0 0 Z " fill="#D8EBFD" transform="translate(17,126)"/>
<path d="M0 0 C0.66 0.33 1.32 0.66 2 1 C-0.625 5.875 -0.625 5.875 -4 7 C-4 6.34 -4 5.68 -4 5 C-5.32 5.33 -6.64 5.66 -8 6 C-5.63404067 3.38499232 -3.13950774 1.61000397 0 0 Z " fill="#A9D6FB" transform="translate(161,321)"/>
<path d="M0 0 C5.94 0.99 5.94 0.99 12 2 C12 2.66 12 3.32 12 4 C8.7 4 5.4 4 2 4 C1.34 2.68 0.68 1.36 0 0 Z " fill="#F5E8F7" transform="translate(272,102)"/>
<path d="M0 0 C2.86898833 3.2432042 3.37113545 5.77762372 4 10 C4.99 11.485 4.99 11.485 6 13 C5.01 13.99 4.02 14.98 3 16 C2.49411853 14.08487728 1.99551609 12.16783078 1.5 10.25 C1.2215625 9.18265625 0.943125 8.1153125 0.65625 7.015625 C0 4 0 4 0 0 Z " fill="#D6C3F5" transform="translate(315,283)"/>
<path d="M0 0 C0.66 0.33 1.32 0.66 2 1 C-0.10605115 3.9484716 -2.18670333 6.69821181 -5 9 C-6.32 8.67 -7.64 8.34 -9 8 C-6.03 5.36 -3.06 2.72 0 0 Z " fill="#EFC7E6" transform="translate(335,195)"/>
<path d="M0 0 C1.98 1.65 3.96 3.3 6 5 C5.67 5.99 5.34 6.98 5 8 C2.69 6.35 0.38 4.7 -2 3 C-1.34 2.01 -0.68 1.02 0 0 Z " fill="#E7CCF8" transform="translate(374,117)"/>
<path d="M0 0 C0 0.66 0 1.32 0 2 C-2.40545638 3.20272819 -3.94996953 3.10071472 -6.625 3.0625 C-7.85089844 3.04896484 -7.85089844 3.04896484 -9.1015625 3.03515625 C-10.04128906 3.01775391 -10.04128906 3.01775391 -11 3 C-11 2.34 -11 1.68 -11 1 C-7.26562152 0.12132271 -3.83225427 -0.08912219 0 0 Z " fill="#E1DAF9" transform="translate(121,104)"/>
<path d="M0 0 C0.33 0 0.66 0 1 0 C0.40546697 9.59453303 0.40546697 9.59453303 -3 13 C-3.93045933 10.44855176 -4.08564091 9.25993522 -3.22265625 6.640625 C-2.83980469 5.85171875 -2.45695313 5.0628125 -2.0625 4.25 C-1.68222656 3.45078125 -1.30195313 2.6515625 -0.91015625 1.828125 C-0.60980469 1.22484375 -0.30945313 0.6215625 0 0 Z " fill="#F7E7F9" transform="translate(161,41)"/>
<path d="M0 0 C2.62451617 2.62451617 2.5832868 4.4877828 3.125 8.125 C3.29257812 9.22070312 3.46015625 10.31640625 3.6328125 11.4453125 C3.75398438 12.28835938 3.87515625 13.13140625 4 14 C3.01 14.495 3.01 14.495 2 15 C1.87625 13.96875 1.7525 12.9375 1.625 11.875 C1.11753162 8.04381581 1.11753162 8.04381581 -0.125 4.6875 C-1 2 -1 2 0 0 Z " fill="#F7D1FC" transform="translate(316,279)"/>
<path d="M0 0 C1.1875 1.6875 1.1875 1.6875 2 4 C0.625 6.75 0.625 6.75 -1 9 C-1.99 8.67 -2.98 8.34 -4 8 C-2.87548273 5.0280615 -1.77706209 2.66559313 0 0 Z " fill="#F6D6F4" transform="translate(382,149)"/>
<path d="M0 0 C0.66 0 1.32 0 2 0 C1.67 2.31 1.34 4.62 1 7 C-0.65 7.33 -2.3 7.66 -4 8 C-2.68 5.36 -1.36 2.72 0 0 Z " fill="#F6E4E6" transform="translate(174,14)"/>
<path d="M0 0 C-4.46204176 0.9154645 -8.34545385 0.97847873 -12.875 0.5625 C-14.02742188 0.46066406 -15.17984375 0.35882813 -16.3671875 0.25390625 C-17.23601562 0.17011719 -18.10484375 0.08632812 -19 0 C-19 -0.33 -19 -0.66 -19 -1 C-16.58388467 -1.22237877 -14.1682283 -1.42832339 -11.75 -1.625 C-11.06808594 -1.68945312 -10.38617188 -1.75390625 -9.68359375 -1.8203125 C-5.8772951 -2.11594735 -3.22190154 -2.17561392 0 0 Z " fill="#B5B5F9" transform="translate(86,109)"/>
<path d="M0 0 C3.57104439 1.87949705 5.54744301 3.17053157 7 7 C5.02 6.34 3.04 5.68 1 5 C0.67 3.35 0.34 1.7 0 0 Z " fill="#EFCFED" transform="translate(267,99)"/>
<path d="M0 0 C2.64 0 5.28 0 8 0 C8.33 0.66 8.66 1.32 9 2 C4.545 2.495 4.545 2.495 0 3 C0 2.01 0 1.02 0 0 Z " fill="#E9DEFE" transform="translate(98,196)"/>
<path d="M0 0 C0.33 1.32 0.66 2.64 1 4 C-1.31 5.98 -3.62 7.96 -6 10 C-6.66 9.67 -7.32 9.34 -8 9 C-5.36 6.03 -2.72 3.06 0 0 Z " fill="#FDDDFA" transform="translate(371,164)"/>
<path d="M0 0 C0.928125 0.20625 1.85625 0.4125 2.8125 0.625 C2.8125 1.285 2.8125 1.945 2.8125 2.625 C-0.5625 3.25 -0.5625 3.25 -4.1875 3.625 C-4.8475 2.965 -5.5075 2.305 -6.1875 1.625 C-3.1875 -0.375 -3.1875 -0.375 0 0 Z " fill="#CAD5E5" transform="translate(187.1875,308.375)"/>
<path d="M0 0 C2 1 2 1 3.25 4.3125 C4.04462583 8.21941034 3.9025592 8.78410702 2 12 C1.66430703 10.37548581 1.3315204 8.75037083 1 7.125 C0.814375 6.22007812 0.62875 5.31515625 0.4375 4.3828125 C0 2 0 2 0 0 Z " fill="#E6D2F5" transform="translate(306,241)"/>
<path d="M0 0 C-2.17424117 2.50037734 -3.73045798 3.43628586 -7 4 C-7.66 3.01 -8.32 2.02 -9 1 C-5.64919071 -1.10976881 -3.77897651 -1.0497157 0 0 Z " fill="#AFBFF4" transform="translate(123,237)"/>
<path d="M0 0 C2.05078125 0.03255208 4.1015625 0.06510417 6.15234375 0.09765625 C5.16234375 0.77828125 5.16234375 0.77828125 4.15234375 1.47265625 C3.16234375 2.27703125 3.16234375 2.27703125 2.15234375 3.09765625 C2.15234375 3.75765625 2.15234375 4.41765625 2.15234375 5.09765625 C1.16234375 5.09765625 0.17234375 5.09765625 -0.84765625 5.09765625 C-0.84765625 4.43765625 -0.84765625 3.77765625 -0.84765625 3.09765625 C-1.50765625 2.43765625 -2.16765625 1.77765625 -2.84765625 1.09765625 C-1.84765625 0.09765625 -1.84765625 0.09765625 0 0 Z " fill="#9FABF9" transform="translate(95.84765625,194.90234375)"/>
<path d="M0 0 C4.28359673 1.8855148 6.15103592 4.35965701 9 8 C8.01 8 7.02 8 6 8 C4.39453125 6.25 4.39453125 6.25 2.8125 4 C2.28269531 3.2575 1.75289062 2.515 1.20703125 1.75 C0.80871094 1.1725 0.41039063 0.595 0 0 Z " fill="#87A0F5" transform="translate(29,164)"/>
<path d="M0 0 C8.57142857 -0.28571429 8.57142857 -0.28571429 12 2 C3.42857143 3.42857143 3.42857143 3.42857143 0 1 C0 0.67 0 0.34 0 0 Z " fill="#F3A4DB" transform="translate(347,113)"/>
<path d="M0 0 C3.625 0.375 3.625 0.375 7 1 C7.33 1.99 7.66 2.98 8 4 C4.7 3.34 1.4 2.68 -2 2 C-1.34 1.34 -0.68 0.68 0 0 Z " fill="#FAE6F9" transform="translate(354,111)"/>
<path d="M0 0 C0.99 0.33 1.98 0.66 3 1 C2.01 2.98 1.02 4.96 0 7 C-0.66 7 -1.32 7 -2 7 C-1.125 1.125 -1.125 1.125 0 0 Z " fill="#D58ED9" transform="translate(161,49)"/>
<path d="M0 0 C0.86625 0.3403125 0.86625 0.3403125 1.75 0.6875 C-0.23 2.0075 -2.21 3.3275 -4.25 4.6875 C-4.91 4.0275 -5.57 3.3675 -6.25 2.6875 C-2.80384615 -0.38942308 -2.80384615 -0.38942308 0 0 Z " fill="#D3E5FE" transform="translate(128.25,343.3125)"/>
<path d="M0 0 C2.1640625 0.0234375 2.1640625 0.0234375 4.625 0.375 C5.85089844 0.54128906 5.85089844 0.54128906 7.1015625 0.7109375 C7.72804688 0.80632812 8.35453125 0.90171875 9 1 C5.01647791 3.30903272 2.49885947 2.86516528 -2 2 C-1.34 1.34 -0.68 0.68 0 0 Z " fill="#D7D2FD" transform="translate(69,196)"/>
<path d="M0 0 C3.63 0 7.26 0 11 0 C11 0.66 11 1.32 11 2 C6.58937864 3.0257259 4.07369424 3.03684712 0 1 C0 0.67 0 0.34 0 0 Z " fill="#D7D9FA" transform="translate(102,195)"/>
<path d="M0 0 C0.66 0.99 1.32 1.98 2 3 C-0.97 5.475 -0.97 5.475 -4 8 C-4.66 7.67 -5.32 7.34 -6 7 C-4.02 4.69 -2.04 2.38 0 0 Z " fill="#FBD1F9" transform="translate(339,192)"/>
<path d="M0 0 C3.96 0 7.92 0 12 0 C12 0.66 12 1.32 12 2 C7.48281619 3.36884358 4.41225737 2.47075246 0 1 C0 0.67 0 0.34 0 0 Z " fill="#DDD4FD" transform="translate(143,188)"/>
<path d="M0 0 C2 2 2 2 2.1953125 3.9453125 C2.13020833 5.96354167 2.06510417 7.98177083 2 10 C-0.77867692 7.22132308 -0.65193902 4.8286708 -1 1 C-0.67 0.67 -0.34 0.34 0 0 Z " fill="#EFCBF6" transform="translate(244,55)"/>
<path d="M0 0 C0.66 0 1.32 0 2 0 C3.42944945 2.35438733 4.08661261 3.48032433 3.625 6.25 C3.41875 6.8275 3.2125 7.405 3 8 C0.37613513 4.93882432 0 4.26826873 0 0 Z " fill="#F8E6FA" transform="translate(240,49)"/>
<path d="M0 0 C2.475 0.495 2.475 0.495 5 1 C5 1.66 5 2.32 5 3 C5.639375 3.12375 6.27875 3.2475 6.9375 3.375 C7.618125 3.58125 8.29875 3.7875 9 4 C9.33 4.66 9.66 5.32 10 6 C5.56909529 4.79157144 3.01887244 3.48331435 0 0 Z " fill="#B2A9F1" transform="translate(262,336)"/>
<path d="M0 0 C-1.25125384 3.75376152 -2.5652404 4.24073289 -6 6 C-6.66 6 -7.32 6 -8 6 C-7.67 5.01 -7.34 4.02 -7 3 C-6.01 3 -5.02 3 -4 3 C-4 2.34 -4 1.68 -4 1 C-2 0 -2 0 0 0 Z " fill="#E4F3FE" transform="translate(147,332)"/>
<path d="M0 0 C0 3.61029169 -0.96092582 6.55806676 -2 10 C-2.82638376 7.10765685 -3 5.11257569 -3 2 C-2.01 1.34 -1.02 0.68 0 0 Z " fill="#B6CFFB" transform="translate(92,259)"/>
<path d="M0 0 C0.99 0.66 1.98 1.32 3 2 C2.34 2 1.68 2 1 2 C1 2.66 1 3.32 1 4 C-0.98 4.33 -2.96 4.66 -5 5 C-4 2 -4 2 -1.9375 0.8125 C-1.298125 0.544375 -0.65875 0.27625 0 0 Z " fill="#D3E2FE" transform="translate(124,233)"/>
<path d="M0 0 C0.99 0.33 1.98 0.66 3 1 C3 2.98 3 4.96 3 7 C2.01 7.495 2.01 7.495 1 8 C0.67 5.36 0.34 2.72 0 0 Z " fill="#E4E7F6" transform="translate(13,140)"/>
<path d="M0 0 C0.33 0 0.66 0 1 0 C0.67 2.97 0.34 5.94 0 9 C-0.66 8.34 -1.32 7.68 -2 7 C-1.43181818 1.43181818 -1.43181818 1.43181818 0 0 Z " fill="#D5F6EF" transform="translate(81,286)"/>
<path d="M0 0 C0.99 0.33 1.98 0.66 3 1 C0.36 2.98 -2.28 4.96 -5 7 C-5 6.01 -5 5.02 -5 4 C-2.6875 1.75 -2.6875 1.75 0 0 Z " fill="#E393D4" transform="translate(348,182)"/>
<path d="M0 0 C0.75 1.75 0.75 1.75 1 4 C-0.9375 6.25 -0.9375 6.25 -3 8 C-2.25 2.25 -2.25 2.25 0 0 Z " fill="#E9E3FD" transform="translate(21,121)"/>
<path d="M0 0 C0.66 0 1.32 0 2 0 C1.67 1.98 1.34 3.96 1 6 C0.01 6 -0.98 6 -2 6 C-1.34 4.02 -0.68 2.04 0 0 Z " fill="#FAF0FB" transform="translate(155,55)"/>
<path d="M0 0 C0.99 0 1.98 0 3 0 C3.625 2.375 3.625 2.375 4 5 C3.34 5.66 2.68 6.32 2 7 C1.34 4.69 0.68 2.38 0 0 Z " fill="#F6CCF3" transform="translate(231,30)"/>
<path d="M0 0 C0 3 0 3 0 3 Z " fill="#FF003F" transform="translate(163,325)"/>
<path d="M0 0 C0.66 0 1.32 0 2 0 C2 0.66 2 1.32 2 2 C1.34 2 0.68 2 0 2 C0 1.34 0 0.68 0 0 Z " fill="#7F7F00" transform="translate(166,323)"/>
<path d="M0 0 C0.66 0 1.32 0 2 0 C2 0.66 2 1.32 2 2 C1.34 2 0.68 2 0 2 C0 1.34 0 0.68 0 0 Z " fill="#00FF00" transform="translate(253,70)"/>
</svg>
