<?xml version="1.0" encoding="UTF-8"?>
<svg version="1.1" xmlns="http://www.w3.org/2000/svg" width="2000" height="2000">
<path d="M0 0 C2.15565834 0.35642006 4.31142604 0.71217917 6.46728516 1.06738281 C12.18796182 2.0151492 17.90579595 2.9791486 23.62264252 3.94968605 C28.97680224 4.85841735 34.33219592 5.7596373 39.68798828 6.65869141 C126.62490165 21.2654992 213.3649682 37.02703215 436.56017894 77.66624326 C442.50629133 78.75480722 448.45246844 79.8430171 454.39868164 80.93103027 C544.57604265 97.43146133 634.73808174 114.01427231 797.1875 144.0625 C798.13613198 144.23814075 799.08476397 144.41378149 800.06214237 144.59474468 C887.99697488 160.87628646 975.9261286 177.18846775 1166.65369797 212.67020416 C1170.92415392 213.466029 1175.1946366 214.26171037 1179.46512663 215.0573523 C1195.55589845 218.05530373 1211.64640958 221.05462427 1227.73550987 224.06153488 C1236.02008084 225.60984038 1244.30489684 227.1568325 1252.58984375 228.703125 C1253.40544502 228.85536687 1254.22104629 229.00760874 1255.06136274 229.164464 C1278.47474879 233.53426462 1301.89795476 237.84715177 1325.33103502 242.11005324 C1331.14132567 243.16729962 1336.95098782 244.22794199 1342.76022339 245.29096985 C1343.56605744 245.43841599 1344.37189148 245.58586213 1345.20214474 245.73777634 C1348.41830845 246.32632822 1351.63445109 246.91499448 1354.85051179 247.50410903 C1364.09959742 249.19827761 1373.35056364 250.88099484 1382.60560089 252.54235637 C1388.30487282 253.56640837 1394.00146811 254.60453266 1399.6962046 255.65351021 C1402.95148718 256.25261022 1406.20770641 256.84303527 1409.46701241 257.42008209 C1423.24018566 259.86179462 1435.73257559 262.52317802 1448.1875 269.0625 C1449.25666153 269.62178696 1450.32582306 270.18107391 1451.42738342 270.75730896 C1464.35091652 277.74644928 1475.77027912 287.31464855 1486.375 297.39453125 C1488.60571399 299.51061133 1490.85785544 301.55803499 1493.1875 303.5625 C1498.41794254 308.08968976 1503.45559972 312.8284087 1508.52929688 317.52929688 C1511.07415258 319.88231422 1513.6305782 322.22261135 1516.1875 324.5625 C1525.35222946 332.9574884 1534.4844968 341.38620424 1543.5625 349.875 C1544.21637695 350.48504883 1544.87025391 351.09509766 1545.54394531 351.72363281 C1549.2950296 355.23776628 1552.96837392 358.81165453 1556.5703125 362.47875977 C1558.25668839 364.13025741 1560.01075325 365.66339365 1561.8125 367.1875 C1565.62694528 370.4676261 1569.15312598 373.9877562 1572.6875 377.5625 C1577.72599298 382.65832883 1577.72599298 382.65832883 1583.0625 387.4375 C1587.84352263 391.48611065 1592.17537141 396.0005354 1596.55810547 400.47021484 C1599.61142342 403.56548063 1602.6969999 406.54624259 1606 409.375 C1612.141803 414.67089027 1617.72068558 420.55312009 1623.41015625 426.32421875 C1627.21131474 430.15857513 1630.98497972 433.96271255 1635.09375 437.46875 C1641.33927192 442.8175438 1646.99658598 448.81725931 1652.76953125 454.66503906 C1659.76704703 461.80506639 1659.76704703 461.80506639 1667.15625 468.53125 C1673.59126031 474.02228152 1679.4015623 480.22344652 1685.34228516 486.23779297 C1690.79130578 491.74823833 1696.22430032 497.19414877 1702.12695312 502.22460938 C1707.38861542 506.9177129 1712.24640384 512.07464679 1717.19677734 517.09228516 C1722.42083308 522.38085636 1727.65414314 527.57560383 1733.31054688 532.40820312 C1737.48014516 536.08317685 1741.29768525 540.1357748 1745.1875 544.1015625 C1749.07294332 548.03253836 1753.06277415 551.74108086 1757.25 555.34765625 C1760.37253688 558.1113532 1763.27172424 561.08400164 1766.1875 564.0625 C1770.45849137 568.38340468 1774.75912998 572.56358241 1779.3984375 576.4921875 C1782.12976202 578.88955094 1784.63497196 581.50132182 1787.18359375 584.08984375 C1789.76607406 586.63205147 1792.49414285 588.97585209 1795.2421875 591.3359375 C1797.76420179 593.57435179 1800.11243014 595.95715441 1802.44921875 598.38671875 C1804.23734435 600.17226073 1804.23734435 600.17226073 1806.62109375 601.9375 C1819.38768686 612.50831682 1825.61573839 629.67128496 1828.875 645.375 C1830.03923695 659.11299597 1829.26697616 669.67737022 1821.9375 681.4375 C1821.40954834 682.29891602 1820.88159668 683.16033203 1820.33764648 684.04785156 C1811.69856057 697.90778001 1801.64151227 710.71086251 1791.26953125 723.30078125 C1788.35228443 726.84490453 1785.50997046 730.44269831 1782.6875 734.0625 C1777.16705139 741.12863403 1771.5136823 748.08305639 1765.84472656 755.03027344 C1763.12088202 758.37047408 1760.40444074 761.71668329 1757.6875 765.0625 C1754.41781044 769.0890074 1751.14646565 773.11410816 1747.8671875 777.1328125 C1742.70732504 783.46136176 1737.58092572 789.80851908 1732.5625 796.25 C1728.60102525 801.33310573 1724.50345291 806.27422271 1720.31201172 811.16870117 C1716.99909741 815.05534398 1713.82083633 819.03010978 1710.6875 823.0625 C1706.68668743 828.21127299 1702.55359011 833.2160141 1698.3125 838.16796875 C1694.99958736 842.0549941 1691.8210169 846.0298774 1688.6875 850.0625 C1684.68605894 855.21208182 1680.55262877 860.21790278 1676.31030273 865.17016602 C1673.01637274 869.03421051 1669.86150783 872.98810063 1666.75 877 C1662.47747076 882.50453256 1658.02414895 887.8192523 1653.46386719 893.08691406 C1649.91200814 897.19556356 1646.47869757 901.38024192 1643.109375 905.640625 C1639.52373264 910.15911741 1635.84626306 914.60318708 1632.1875 919.0625 C1630.68721683 920.89560162 1629.18721592 922.72893427 1627.6875 924.5625 C1600.6875 957.5625 1600.6875 957.5625 1598.41796875 960.3359375 C1596.98250065 962.09067784 1595.54756204 963.84585155 1594.11328125 965.6015625 C1588.87544837 972.0108885 1583.61572781 978.40193196 1578.35205078 984.79003906 C1573.61763437 990.5370482 1568.89770983 996.29562713 1564.1875 1002.0625 C1558.26004041 1009.31969387 1552.31072519 1016.55846879 1546.35205078 1023.79003906 C1541.61763237 1029.53705062 1536.89823971 1035.29605779 1532.1875 1041.0625 C1529.9312756 1043.82054664 1527.67461983 1046.57823997 1525.41796875 1049.3359375 C1523.98250065 1051.09067784 1522.54756204 1052.84585155 1521.11328125 1054.6015625 C1515.87544837 1061.0108885 1510.61572781 1067.40193196 1505.35205078 1073.79003906 C1500.61763437 1079.5370482 1495.89770983 1085.29562713 1491.1875 1091.0625 C1485.26004041 1098.31969387 1479.31072519 1105.55846879 1473.35205078 1112.79003906 C1468.61763437 1118.5370482 1463.89770983 1124.29562713 1459.1875 1130.0625 C1453.25642217 1137.32412381 1447.30361367 1144.56743306 1441.34106445 1151.80322266 C1438.11635454 1155.71741932 1434.89633634 1159.63526747 1431.6875 1163.5625 C1427.2535312 1168.98914838 1422.79636462 1174.39656281 1418.33984375 1179.8046875 C1415.11555276 1183.71840572 1411.89593416 1187.63575968 1408.6875 1191.5625 C1404.2535312 1196.98914838 1399.79636462 1202.39656281 1395.33984375 1207.8046875 C1392.11555276 1211.71840572 1388.89593416 1215.63575968 1385.6875 1219.5625 C1378.92884329 1227.83279712 1372.12737962 1236.06798082 1365.33496094 1244.31054688 C1359.07624652 1251.90591307 1352.8208987 1259.50371353 1346.59375 1267.125 C1342.85204358 1271.69279745 1339.09487457 1276.24784249 1335.33984375 1280.8046875 C1332.11555276 1284.71840572 1328.89593416 1288.63575968 1325.6875 1292.5625 C1318.92884329 1300.83279712 1312.12737962 1309.06798082 1305.33496094 1317.31054688 C1299.07624652 1324.90591307 1292.8208987 1332.50371353 1286.59375 1340.125 C1282.85204358 1344.69279745 1279.09487457 1349.24784249 1275.33984375 1353.8046875 C1272.11555276 1357.71840572 1268.89593416 1361.63575968 1265.6875 1365.5625 C1260.15047024 1372.33794122 1254.58260975 1379.08797676 1249.01806641 1385.84082031 C1246.07382412 1389.4141205 1243.1307036 1392.98834428 1240.1875 1396.5625 C1239.02083904 1397.97917137 1237.85417237 1399.39583803 1236.6875 1400.8125 C1236.11 1401.51375 1235.5325 1402.215 1234.9375 1402.9375 C1145.68750002 1511.31249998 1145.68750002 1511.31249998 1143.9362793 1513.43896484 C1142.7736588 1514.85072989 1141.61106102 1516.26251364 1140.44848633 1517.67431641 C1137.47010241 1521.29113422 1134.49128282 1524.90759182 1131.51171875 1528.5234375 C1124.08752692 1537.53304563 1124.08752692 1537.53304563 1116.6875 1546.5625 C1111.15047024 1553.33794122 1105.58260975 1560.08797676 1100.01806641 1566.84082031 C1097.07382412 1570.4141205 1094.1307036 1573.98834428 1091.1875 1577.5625 C1090.02083904 1578.97917137 1088.85417237 1580.39583803 1087.6875 1581.8125 C1087.11 1582.51375 1086.5325 1583.215 1085.9375 1583.9375 C1028.1875 1654.0625 970.4375 1724.1875 898.6875 1811.3125 C898.1097583 1812.01407227 897.5320166 1812.71564453 896.93676758 1813.43847656 C895.77265646 1814.85198203 894.6084316 1816.26539384 893.4440918 1817.67871094 C890.48737496 1821.26797571 887.53278796 1824.85895822 884.58203125 1828.453125 C879.200229 1835.0046619 873.80641182 1841.54200768 868.3125 1848 C864.6133395 1852.34885274 861.00504906 1856.75750943 857.45703125 1861.23046875 C852.71468884 1867.14819379 847.86188043 1872.97658867 843.03417969 1878.82470703 C840.0824282 1882.40161795 837.13511867 1885.98218331 834.1875 1889.5625 C833.02085617 1890.97918547 831.85418947 1892.39585211 830.6875 1893.8125 C830.11 1894.51375 829.5325 1895.215 828.9375 1895.9375 C823.6875 1902.3125 823.6875 1902.3125 821.93652344 1904.43847656 C820.77283797 1905.85166243 819.60942537 1907.26507304 818.44628906 1908.67871094 C815.4862356 1912.27554901 812.52117704 1915.86805719 809.546875 1919.453125 C803.3798422 1926.896067 797.33387271 1934.3970254 791.4765625 1942.0859375 C787.82322096 1946.83652838 784.02308887 1951.4585127 780.1875 1956.0625 C779.76355957 1956.57280762 779.33961914 1957.08311523 778.90283203 1957.60888672 C773.4124215 1964.20660694 767.808029 1970.66860061 761.96362305 1976.95581055 C759.59154009 1979.51006537 757.31115399 1982.09823016 755.125 1984.8125 C751.11417956 1989.58784634 745.77978038 1994.26635981 740.1875 1997.0625 C730.93833733 1997.86164862 724.55797481 1997.25750944 717.2421875 1991.54296875 C702.60402452 1978.36862207 696.71760105 1957.39890072 690.47631836 1939.43798828 C671.80759952 1885.74807648 649.92072156 1833.17235267 628.75416565 1780.43469238 C624.43178043 1769.66450166 620.11811537 1758.8909557 615.82421875 1748.109375 C608.31693826 1729.26358088 600.75170964 1710.45081557 592.90234375 1691.74462891 C587.60402475 1679.11257894 582.41871866 1666.43557049 577.25 1653.75 C576.38892417 1651.63728509 575.5278402 1649.52457349 574.66674805 1647.41186523 C573.39141022 1644.28258557 572.11612496 1641.15328454 570.84101868 1638.02391052 C559.43666904 1610.03924207 547.90930638 1582.10619313 536.31982422 1554.19775391 C532.81503549 1545.75780968 529.31347111 1537.31652838 525.8125 1528.875 C525.29003693 1527.61542984 525.29003693 1527.61542984 524.75701904 1526.33041382 C520.69576672 1516.53873004 516.64104391 1506.74438796 512.59765625 1496.9453125 C512.01813705 1495.54087387 512.01813705 1495.54087387 511.4269104 1494.10806274 C510.63938197 1492.19946371 509.85185553 1490.29086385 509.06433105 1488.38226318 C501.25758907 1469.46315321 493.40672932 1450.56285396 485.52807617 1431.67358398 C480.23242017 1418.97626361 474.95232524 1406.27263309 469.6875 1393.5625 C456.88361655 1362.65718731 444.00966518 1331.78108656 431.08328247 1300.92681885 C424.67484996 1285.62979482 418.29223816 1270.32211136 411.91699219 1255.01123047 C406.02227897 1240.85529677 400.11285866 1226.70563238 394.1875 1212.5625 C387.88010109 1197.50653806 381.58923996 1182.4437699 375.3125 1167.375 C374.89711975 1166.37779938 374.4817395 1165.38059875 374.05377197 1164.35317993 C370.67412438 1156.23925966 367.29541871 1148.12494723 363.91674805 1140.01062012 C360.96576964 1132.92356444 358.01442308 1125.83666225 355.0625 1118.75 C354.64695862 1117.75239655 354.23141724 1116.75479309 353.80328369 1115.72695923 C347.57916983 1100.78615191 341.33672886 1085.85310208 335.0824585 1070.92489624 C328.67430556 1055.62851109 322.29197012 1040.32146764 315.91699219 1025.01123047 C310.02227897 1010.85529677 304.11285866 996.70563238 298.1875 982.5625 C289.33636704 961.43456392 280.52541569 940.28997564 271.71972656 919.14306641 C267.95952894 910.11327056 264.19701022 901.08444187 260.43466187 892.05554199 C259.18788705 889.06342888 257.94121621 886.07127246 256.69458008 883.07910156 C252.91743799 874.01331366 249.13988055 864.94769974 245.36050415 855.88284302 C236.7725779 835.28457082 228.19323272 814.6828855 219.65292358 794.06481934 C214.31354625 781.17513912 208.95249131 768.29461779 203.58169556 755.41799927 C195.7248687 736.58061975 187.9061183 717.72795974 180.12158203 698.8605957 C179.33757921 696.9604434 178.55356238 695.06029688 177.76953125 693.16015625 C177.38526978 692.22887405 177.0010083 691.29759186 176.60510254 690.33808899 C172.9910557 681.58175148 169.36340189 672.83108288 165.73278809 664.081604 C151.21108954 629.08487015 136.7575629 594.06110419 122.42668152 558.98577881 C118.64718941 549.73700251 114.85587665 540.49308849 111.0625 531.25 C110.4004699 529.63663823 109.7384419 528.02327561 109.07641602 526.40991211 C106.15162449 519.28264248 103.22589188 512.15575978 100.29920959 505.02926636 C93.01503773 487.29151343 85.74404528 469.54840943 78.4942627 451.79656982 C77.69702578 449.84453998 76.89959864 447.8925878 76.10192871 445.94073486 C61.04998057 409.10479542 46.1958859 372.18843361 31.35742188 335.26611328 C29.49133997 330.62289555 27.62445504 325.98000199 25.75683594 321.33740234 C14.71967345 293.90027198 3.72801843 266.44703348 -7.08282471 238.91986084 C-8.16464285 236.1661337 -9.2484105 233.41317444 -10.33203125 230.66015625 C-12.3930164 225.42122228 -14.44852044 220.18016307 -16.5 214.9375 C-16.86147125 214.01378601 -17.2229425 213.09007202 -17.59536743 212.1383667 C-30.48753792 179.17569394 -43.37230422 146.19239101 -55.62011719 112.98364258 C-56.20626556 111.39530274 -56.79252703 109.80700463 -57.37890625 108.21875 C-57.66277191 107.44935593 -57.94663757 106.67996185 -58.23910522 105.88725281 C-59.91750999 101.37036677 -61.67657833 96.89649396 -63.51274109 92.4414978 C-71.75734467 72.42088911 -78.64040339 51.33332514 -70.63745117 29.82763672 C-67.746791 23.26381029 -63.66611996 17.32744369 -58.8125 12.0625 C-58.008125 11.175625 -57.20375 10.28875 -56.375 9.375 C-39.0440264 -6.26514691 -21.54362669 -3.65100546 0 0 Z M220.1875 163.0625 C223.74854828 166.7157011 227.46267129 170.09855621 231.375 173.375 C232.23037354 174.09502197 232.23037354 174.09502197 233.10302734 174.82958984 C237.27009993 178.32489254 241.49352372 181.74396042 245.75390625 185.125 C253.89478986 191.60634554 261.88409046 198.28071446 269.91479492 204.89770508 C275.66183947 209.63226372 281.42096913 214.35168786 287.1875 219.0625 C289.02095036 220.56235696 290.85428171 222.0623594 292.6875 223.5625 C294.04875 224.67625 294.04875 224.67625 295.4375 225.8125 C314.6875 241.5625 314.6875 241.5625 317.4609375 243.83203125 C319.21567784 245.26749935 320.97085155 246.70243796 322.7265625 248.13671875 C329.1358885 253.37455163 335.52693196 258.63427219 341.91503906 263.89794922 C347.66205062 268.63236763 353.42105779 273.35176029 359.1875 278.0625 C361.02095036 279.56235696 362.85428171 281.0623594 364.6875 282.5625 C365.595 283.305 366.5025 284.0475 367.4375 284.8125 C386.6875 300.5625 386.6875 300.5625 389.4609375 302.83203125 C391.21567784 304.26749935 392.97085155 305.70243796 394.7265625 307.13671875 C401.1358885 312.37455163 407.52693196 317.63427219 413.91503906 322.89794922 C419.66205062 327.63236763 425.42105779 332.35176029 431.1875 337.0625 C433.02095036 338.56235696 434.85428171 340.0623594 436.6875 341.5625 C438.04875 342.67625 438.04875 342.67625 439.4375 343.8125 C447.6875 350.5625 447.6875 350.5625 450.4609375 352.83203125 C452.21567784 354.26749935 453.97085155 355.70243796 455.7265625 357.13671875 C462.1358885 362.37455163 468.52693196 367.63427219 474.91503906 372.89794922 C480.66205062 377.63236763 486.42105779 382.35176029 492.1875 387.0625 C494.02095036 388.56235696 495.85428171 390.0623594 497.6875 391.5625 C498.595 392.305 499.5025 393.0475 500.4375 393.8125 C519.6875 409.5625 519.6875 409.5625 522.4609375 411.83203125 C524.21567784 413.26749935 525.97085155 414.70243796 527.7265625 416.13671875 C534.1358885 421.37455163 540.52693196 426.63427219 546.91503906 431.89794922 C552.66205062 436.63236763 558.42105779 441.35176029 564.1875 446.0625 C566.02095036 447.56235696 567.85428171 449.0623594 569.6875 450.5625 C570.595 451.305 571.5025 452.0475 572.4375 452.8125 C580.6875 459.5625 580.6875 459.5625 583.4609375 461.83203125 C585.21567784 463.26749935 586.97085155 464.70243796 588.7265625 466.13671875 C595.1358885 471.37455163 601.52693196 476.63427219 607.91503906 481.89794922 C613.66205062 486.63236763 619.42105779 491.35176029 625.1875 496.0625 C627.02095036 497.56235696 628.85428171 499.0623594 630.6875 500.5625 C631.595 501.305 632.5025 502.0475 633.4375 502.8125 C652.6875 518.5625 652.6875 518.5625 655.4609375 520.83203125 C657.21567784 522.26749935 658.97085155 523.70243796 660.7265625 525.13671875 C667.1358885 530.37455163 673.52693196 535.63427219 679.91503906 540.89794922 C685.66205062 545.63236763 691.42105779 550.35176029 697.1875 555.0625 C699.02095036 556.56235696 700.85428171 558.0623594 702.6875 559.5625 C703.595 560.305 704.5025 561.0475 705.4375 561.8125 C713.6875 568.5625 713.6875 568.5625 716.4609375 570.83203125 C718.21567784 572.26749935 719.97085155 573.70243796 721.7265625 575.13671875 C728.1358885 580.37455163 734.52693196 585.63427219 740.91503906 590.89794922 C746.66205062 595.63236763 752.42105779 600.35176029 758.1875 605.0625 C760.02095036 606.56235696 761.85428171 608.0623594 763.6875 609.5625 C764.595 610.305 765.5025 611.0475 766.4375 611.8125 C785.6875 627.5625 785.6875 627.5625 788.4609375 629.83203125 C790.21567784 631.26749935 791.97085155 632.70243796 793.7265625 634.13671875 C800.1358885 639.37455163 806.52693196 644.63427219 812.91503906 649.89794922 C818.66205062 654.63236763 824.42105779 659.35176029 830.1875 664.0625 C832.02095036 665.56235696 833.85428171 667.0623594 835.6875 668.5625 C836.595 669.305 837.5025 670.0475 838.4375 670.8125 C846.6875 677.5625 846.6875 677.5625 849.4609375 679.83203125 C851.21567784 681.26749935 852.97085155 682.70243796 854.7265625 684.13671875 C855.57992187 684.83410156 856.43328125 685.53148437 857.3125 686.25 C858.20195313 686.97445312 859.09140625 687.69890625 860.0078125 688.4453125 C862.54346963 690.52085038 865.05022047 692.62914426 867.5546875 694.7421875 C868.70106689 695.70282104 868.70106689 695.70282104 869.87060547 696.68286133 C871.39804612 697.96323966 872.92064382 699.24942093 874.43798828 700.54174805 C875.13907715 701.12738525 875.84016602 701.71302246 876.5625 702.31640625 C877.18898438 702.84564697 877.81546875 703.3748877 878.4609375 703.92016602 C880.25945117 705.33839244 880.25945117 705.33839244 883.1875 705.0625 C885.3930683 703.37364599 885.3930683 703.37364599 887.6875 701.125 C891.18778634 697.87762452 894.72293566 694.75022505 898.4375 691.75 C902.70481435 688.29407641 906.90053684 684.76863096 911.0625 681.1875 C919.49266935 673.93660909 927.92528631 666.69168068 936.5625 659.6875 C941.68483524 655.52093577 946.66167378 651.20048719 951.63793945 646.86206055 C956.14965363 642.93760903 960.74075555 639.12823217 965.38671875 635.36328125 C968.65079783 632.68191084 971.8600072 629.94187137 975.0625 627.1875 C975.65208496 626.68041504 976.24166992 626.17333008 976.84912109 625.65087891 C977.43902832 625.14347168 978.02893555 624.63606445 978.63671875 624.11328125 C985.89781003 617.86822679 993.19303429 611.6661885 1000.625 605.625 C1006.04606956 601.2110377 1011.34591974 596.66467195 1016.64453125 592.10546875 C1021.59308716 587.84898075 1026.5822854 583.64082994 1031.56982422 579.43017578 C1033.21658979 578.03790583 1034.86060067 576.64244527 1036.50390625 575.24609375 C1041.50984652 570.99509941 1046.5279038 566.76685708 1051.625 562.625 C1057.04606956 558.2110377 1062.34591974 553.66467195 1067.64453125 549.10546875 C1072.59308716 544.84898075 1077.5822854 540.64082994 1082.56982422 536.43017578 C1084.21658979 535.03790583 1085.86060067 533.64244527 1087.50390625 532.24609375 C1092.48776248 528.01396367 1097.48309272 523.80512602 1102.5625 519.6875 C1107.68483524 515.52093577 1112.66167378 511.20048719 1117.63793945 506.86206055 C1122.14689957 502.9400046 1126.73448064 499.13218135 1131.37890625 495.37109375 C1134.69048366 492.64906003 1137.94066116 489.86113676 1141.1875 487.0625 C1145.28985153 483.52644774 1149.41551677 480.03386829 1153.625 476.625 C1158.05989317 473.02613971 1162.38317786 469.31517936 1166.6875 465.5625 C1171.84605495 461.06506649 1177.06906886 456.67254716 1182.38671875 452.36328125 C1185.65079783 449.68191084 1188.8600072 446.94187137 1192.0625 444.1875 C1192.65208496 443.68041504 1193.24166992 443.17333008 1193.84912109 442.65087891 C1194.43902832 442.14347168 1195.02893555 441.63606445 1195.63671875 441.11328125 C1202.89781003 434.86822679 1210.19303429 428.6661885 1217.625 422.625 C1223.04606956 418.2110377 1228.34591974 413.66467195 1233.64453125 409.10546875 C1238.59308716 404.84898075 1243.5822854 400.64082994 1248.56982422 396.43017578 C1250.21658979 395.03790583 1251.86060067 393.64244527 1253.50390625 392.24609375 C1258.48776248 388.01396367 1263.48309272 383.80512602 1268.5625 379.6875 C1273.19753949 375.91511188 1277.73423871 372.03851639 1282.25 368.125 C1282.90597168 367.55668457 1283.56194336 366.98836914 1284.23779297 366.40283203 C1286.61468481 364.33545406 1288.95919812 362.29080188 1291.1875 360.0625 C1271.62668769 356.05741789 1252.00973568 352.39029061 1232.37441707 348.77335954 C1227.91692831 347.951838 1223.4598418 347.12813912 1219.00270081 346.30473328 C1210.30712054 344.69867089 1201.61117786 343.09457934 1192.9151091 341.49116427 C1182.649048 339.59817695 1172.38338141 337.70305421 1162.11772001 335.80790079 C1138.58724137 331.46402773 1115.05609897 327.1237565 1091.52478534 322.78440934 C1081.59634322 320.95352281 1071.66796523 319.1222886 1061.73959064 317.29103589 C1020.03346845 309.59855582 978.32659859 301.9101353 936.61932373 294.22390747 C910.56505082 289.42235836 884.5109681 284.6197785 858.45703125 279.81640625 C856.59219552 279.47260154 854.72735978 279.12879686 852.86252403 278.78499222 C842.60358508 276.89363151 832.34465129 275.00224279 822.08571941 273.11084378 C805.28200009 270.0128096 788.47826965 266.91483576 771.6745317 263.81690264 C768.87483621 263.30075105 766.07514107 262.78459757 763.27544594 262.26844406 C738.27656355 257.65964499 713.27756446 253.05147941 688.27847326 248.44381309 C671.67131295 245.38288535 655.06419021 242.32175379 638.45708561 239.2605238 C635.69117607 238.75067762 632.92526563 238.24083633 630.15935516 237.73099518 C575.56430817 227.66741273 520.97119512 217.59338901 466.37940288 207.5121659 C450.79458334 204.63420094 435.20960763 201.75708312 419.62451172 198.88061523 C417.59986927 198.50692983 415.57522696 198.13324368 413.55058479 197.75955677 C401.62308132 195.5581113 401.62308132 195.5581113 389.69556046 193.35676003 C367.99783159 189.35225572 346.30064363 185.34486072 324.60486031 181.32982826 C312.45379088 179.08119688 300.30222672 176.83525478 288.15020561 174.59177208 C281.37151814 173.34018591 274.59312007 172.08707768 267.81549072 170.82977295 C261.70769081 169.69683089 255.59917701 168.56782995 249.49003601 167.44214249 C247.30410665 167.03859181 245.11845857 166.63351402 242.93312073 166.22677231 C240.00123516 165.68127391 237.06840305 165.14119499 234.13525391 164.60253906 C233.29023378 164.44393591 232.44521366 164.28533276 231.57458687 164.12192345 C227.7269419 163.42108594 224.11874615 162.86752948 220.1875 163.0625 Z M128.1875 219.0625 C137.98352629 243.81140382 148.11219474 268.42644759 158.1875 293.0625 C158.98080547 295.00259959 159.77410009 296.94270361 160.56738281 298.8828125 C164.66464046 308.90290157 168.76371244 318.92224739 172.86395264 328.94111633 C176.59721754 338.06332038 180.32917324 347.18605982 184.06103516 356.30883789 C185.18517705 359.05682151 186.30937579 361.80478187 187.43359375 364.55273438 C190.82749024 372.84856709 194.22116273 381.14449114 197.61383057 389.44082642 C205.12914295 407.81851784 212.6483996 426.19455254 220.1875 444.5625 C228.10917638 463.86253952 236.00860849 483.17164944 243.90527344 502.48193359 C246.16818794 508.01547616 248.43165841 513.54879119 250.6953125 519.08203125 C251.06615967 519.98852417 251.43700684 520.89501709 251.8190918 521.82897949 C252.94188501 524.57349022 254.06469012 527.31799609 255.1875 530.0625 C259.33012754 540.18839726 263.47273348 550.31430314 267.61383057 560.44082642 C275.12914295 578.81851784 282.6483996 597.19455254 290.1875 615.5625 C298.10917638 634.86253952 306.00860849 654.17164944 313.90527344 673.48193359 C316.16818794 679.01547616 318.43165841 684.54879119 320.6953125 690.08203125 C321.06615967 690.98852417 321.43700684 691.89501709 321.8190918 692.82897949 C322.94188501 695.57349022 324.06469012 698.31799609 325.1875 701.0625 C329.33012754 711.18839726 333.47273348 721.31430314 337.61383057 731.44082642 C345.12914295 749.81851784 352.6483996 768.19455254 360.1875 786.5625 C368.10917638 805.86253952 376.00860849 825.17164944 383.90527344 844.48193359 C386.16818794 850.01547616 388.43165841 855.54879119 390.6953125 861.08203125 C391.25158325 862.44177063 391.25158325 862.44177063 391.8190918 863.82897949 C392.94188501 866.57349022 394.06469012 869.31799609 395.1875 872.0625 C399.33012754 882.18839726 403.47273348 892.31430314 407.61383057 902.44082642 C415.12914295 920.81851784 422.6483996 939.19455254 430.1875 957.5625 C435.82116603 971.28812724 441.44568357 985.01746869 447.0625 998.75 C447.62369537 1000.12205093 447.62369537 1000.12205093 448.19622803 1001.52182007 C451.24225313 1008.96919669 454.28776199 1016.41678441 457.33325195 1023.86437988 C459.9927617 1030.36801793 462.65247279 1036.87157358 465.3125 1043.375 C465.68679138 1044.29010345 466.06108276 1045.20520691 466.44671631 1046.14804077 C471.68575496 1058.95610339 476.93304084 1071.76075646 482.1875 1084.5625 C490.10917638 1103.86253952 498.00860849 1123.17164944 505.90527344 1142.48193359 C508.16818794 1148.01547616 510.43165841 1153.54879119 512.6953125 1159.08203125 C513.25158325 1160.44177063 513.25158325 1160.44177063 513.8190918 1161.82897949 C514.94188501 1164.57349022 516.06469012 1167.31799609 517.1875 1170.0625 C521.33012754 1180.18839726 525.47273348 1190.31430314 529.61383057 1200.44082642 C537.12914295 1218.81851784 544.6483996 1237.19455254 552.1875 1255.5625 C560.10917638 1274.86253952 568.00860849 1294.17164944 575.90527344 1313.48193359 C578.16818794 1319.01547616 580.43165841 1324.54879119 582.6953125 1330.08203125 C583.25158325 1331.44177063 583.25158325 1331.44177063 583.8190918 1332.82897949 C584.94188501 1335.57349022 586.06469012 1338.31799609 587.1875 1341.0625 C591.33012754 1351.18839726 595.47273348 1361.31430314 599.61383057 1371.44082642 C607.12914295 1389.81851784 614.6483996 1408.19455254 622.1875 1426.5625 C630.10917638 1445.86253952 638.00860849 1465.17164944 645.90527344 1484.48193359 C648.16818794 1490.01547616 650.43165841 1495.54879119 652.6953125 1501.08203125 C653.06615967 1501.98852417 653.43700684 1502.89501709 653.8190918 1503.82897949 C654.94188501 1506.57349022 656.06469012 1509.31799609 657.1875 1512.0625 C661.33012754 1522.18839726 665.47273348 1532.31430314 669.61383057 1542.44082642 C677.45107418 1561.6057576 685.29347329 1580.76852848 693.15646362 1599.9229126 C697.11435039 1609.5645937 701.06693077 1619.20842011 705.01171875 1628.85546875 C705.41786407 1629.84866119 705.8240094 1630.84185364 706.24246216 1631.86514282 C708.58229554 1637.5874378 710.92107779 1643.31016129 713.25930786 1649.03311157 C714.28852078 1651.54944057 715.32053688 1654.06460425 716.35302734 1656.57958984 C717.4966602 1659.36652676 718.62826844 1662.15760083 719.74462891 1664.95556641 C720.18597168 1666.0491748 720.62731445 1667.1427832 721.08203125 1668.26953125 C721.4478833 1669.18839111 721.81373535 1670.10725098 722.19067383 1671.05395508 C723.01891331 1673.22919563 723.01891331 1673.22919563 725.1875 1674.0625 C725.31397516 1672.97834579 725.31397516 1672.97834579 725.44300538 1671.87228948 C726.29790713 1664.54401404 727.15281121 1657.21573887 728.00771721 1649.88746393 C728.49501922 1645.71029904 728.98232057 1641.53313407 729.46962059 1637.35596895 C731.85477976 1616.91024785 734.23999259 1596.46453301 736.62533133 1576.01883285 C737.6299857 1567.40752489 738.63463001 1558.79621574 739.63927165 1550.18490629 C739.89931223 1547.95596287 740.15935321 1545.72701949 740.41939458 1543.49807616 C743.94725432 1513.25901205 747.4745616 1483.01988357 751.00120895 1452.78067804 C753.81951577 1428.61515321 756.63811418 1404.4496624 759.45695433 1380.28419977 C759.74656683 1377.80139533 760.03617746 1375.31859068 760.32578626 1372.83578581 C768.74706249 1300.64060305 777.18037967 1228.44683796 785.62640343 1156.25454622 C787.8719956 1137.06031998 790.11675759 1117.86599683 792.36076355 1098.67158508 C792.5066078 1097.42410285 792.65245206 1096.17662061 792.80271583 1094.89133588 C794.1160576 1083.65759919 795.42935617 1072.42385746 796.74250257 1061.19009793 C800.02803742 1033.08292162 803.31573951 1004.9760016 806.60836656 976.86965517 C808.90679861 957.24943408 811.20198635 937.62883569 813.493873 918.00784892 C814.85877168 906.32384213 816.22632244 894.6401526 817.59759485 882.9568921 C818.51356867 875.15065609 819.42622768 867.34403723 820.33616806 859.53709564 C820.85549658 855.08231756 821.37630799 850.6277263 821.90117419 846.17359698 C822.37863862 842.12150008 822.85186677 838.06893188 823.32170275 834.01594359 C823.49153689 832.55741785 823.6629238 831.09907187 823.8360413 829.64093219 C825.19383467 819.37644581 825.19383467 819.37644581 825.1875 809.0625 C823.12316997 806.67010553 821.47172873 805.1025065 819 803.25 C817.7043057 802.21239115 816.40873544 801.17462737 815.11328125 800.13671875 C814.45408691 799.62286621 813.79489258 799.10901367 813.11572266 798.57958984 C810.2402178 796.31719593 807.46750666 793.94038087 804.6875 791.5625 C803.61760442 790.65836059 802.5472881 789.75471881 801.4765625 788.8515625 C797.98806849 785.9000826 794.52604204 782.91817383 791.0625 779.9375 C787.0012519 776.44430518 782.91231221 772.99801449 778.75 769.625 C773.69895932 765.52334729 768.78621604 761.27658989 763.87963867 757.00463867 C758.22350979 752.08249483 752.50990409 747.23185245 746.77587891 742.40087891 C744.09841047 740.14482573 741.42377043 737.88543394 738.75 735.625 C738.21761719 735.17511719 737.68523438 734.72523438 737.13671875 734.26171875 C733.09405238 730.84100105 729.07678039 727.39144463 725.0625 723.9375 C721.00121255 720.44434894 716.91231413 716.99801604 712.75 713.625 C707.69895932 709.52334729 702.78621604 705.27658989 697.87963867 701.00463867 C692.22350979 696.08249483 686.50990409 691.23185245 680.77587891 686.40087891 C678.09841047 684.14482573 675.42377043 681.88543394 672.75 679.625 C672.21761719 679.17511719 671.68523438 678.72523438 671.13671875 678.26171875 C667.09405238 674.84100105 663.07678039 671.39144463 659.0625 667.9375 C655.00121255 664.44434894 650.91231413 660.99801604 646.75 657.625 C641.69895932 653.52334729 636.78621604 649.27658989 631.87963867 645.00463867 C626.22350979 640.08249483 620.50990409 635.23185245 614.77587891 630.40087891 C612.09841047 628.14482573 609.42377043 625.88543394 606.75 623.625 C606.21761719 623.17511719 605.68523437 622.72523438 605.13671875 622.26171875 C601.09405238 618.84100105 597.07678039 615.39144463 593.0625 611.9375 C589.00121255 608.44434894 584.91231413 604.99801604 580.75 601.625 C575.69816283 597.52270051 570.7844402 593.27548022 565.87744141 589.00244141 C561.29653362 585.01546241 556.68008493 581.07438319 552.03613281 577.16113281 C548.02365816 573.77768052 544.04039612 570.36149816 540.0625 566.9375 C536.00129124 563.44426144 531.91231029 559.99801293 527.75 556.625 C522.69895932 552.52334729 517.78621604 548.27658989 512.87963867 544.00463867 C507.22350979 539.08249483 501.50990409 534.23185245 495.77587891 529.40087891 C493.09841047 527.14482573 490.42377043 524.88543394 487.75 522.625 C487.21761719 522.17511719 486.68523437 521.72523438 486.13671875 521.26171875 C482.09405238 517.84100105 478.07678039 514.39144463 474.0625 510.9375 C470.00121255 507.44434894 465.91231413 503.99801604 461.75 500.625 C456.69895932 496.52334729 451.78621604 492.27658989 446.87963867 488.00463867 C441.22350979 483.08249483 435.50990409 478.23185245 429.77587891 473.40087891 C427.09841047 471.14482573 424.42377043 468.88543394 421.75 466.625 C421.21761719 466.17511719 420.68523437 465.72523438 420.13671875 465.26171875 C416.09405238 461.84100105 412.07678039 458.39144463 408.0625 454.9375 C404.00121255 451.44434894 399.91231413 447.99801604 395.75 444.625 C390.69895932 440.52334729 385.78621604 436.27658989 380.87963867 432.00463867 C375.22350979 427.08249483 369.50990409 422.23185245 363.77587891 417.40087891 C361.09841047 415.14482573 358.42377043 412.88543394 355.75 410.625 C355.21761719 410.17511719 354.68523437 409.72523438 354.13671875 409.26171875 C350.09405238 405.84100105 346.07678039 402.39144463 342.0625 398.9375 C338.00121255 395.44434894 333.91231413 391.99801604 329.75 388.625 C324.69816283 384.52270051 319.7844402 380.27548022 314.87744141 376.00244141 C310.29653362 372.01546241 305.68008493 368.07438319 301.03613281 364.16113281 C297.02365816 360.77768052 293.04039612 357.36149816 289.0625 353.9375 C285.00129124 350.44426144 280.91231029 346.99801293 276.75 343.625 C271.69895932 339.52334729 266.78621604 335.27658989 261.87963867 331.00463867 C256.22350979 326.08249483 250.50990409 321.23185245 244.77587891 316.40087891 C242.09841047 314.14482573 239.42377043 311.88543394 236.75 309.625 C236.21761719 309.17511719 235.68523437 308.72523438 235.13671875 308.26171875 C231.09405238 304.84100105 227.07678039 301.39144463 223.0625 297.9375 C219.00121255 294.44434894 214.91231413 290.99801604 210.75 287.625 C205.69895932 283.52334729 200.78621604 279.27658989 195.87963867 275.00463867 C190.22350979 270.08249483 184.50990409 265.23185245 178.77587891 260.40087891 C176.09841047 258.14482573 173.42377043 255.88543394 170.75 253.625 C170.21761719 253.17511719 169.68523437 252.72523438 169.13671875 252.26171875 C165.09405285 248.84100145 161.07673618 245.39149557 157.0625 241.9375 C152.0194106 237.59888841 146.90626512 233.36072784 141.734375 229.17578125 C138.37743372 226.39034378 135.16233988 223.46230626 131.96484375 220.49609375 C130.30862189 218.85322689 130.30862189 218.85322689 128.1875 219.0625 Z M1417.1875 408.0625 C1416.29289062 408.8359375 1415.39828125 409.609375 1414.4765625 410.40625 C1408.31496615 415.71903319 1402.1266529 420.9630382 1395.7421875 426.0078125 C1392.70025124 428.45438509 1389.72333923 430.97086317 1386.75 433.5 C1381.9608793 437.57224464 1377.1313288 441.58731735 1372.2578125 445.55859375 C1362.67598079 453.37278475 1353.13179692 461.22943174 1343.71044922 469.23657227 C1339.59893408 472.72666897 1335.43848691 476.15189259 1331.2578125 479.55859375 C1321.67598079 487.37278475 1312.13179692 495.22943174 1302.71044922 503.23657227 C1298.59893408 506.72666897 1294.43848691 510.15189259 1290.2578125 513.55859375 C1280.67598079 521.37278475 1271.13179692 529.22943174 1261.71044922 537.23657227 C1257.59893408 540.72666897 1253.43848691 544.15189259 1249.2578125 547.55859375 C1239.67598079 555.37278475 1230.13179692 563.22943174 1220.71044922 571.23657227 C1216.59893408 574.72666897 1212.43848691 578.15189259 1208.2578125 581.55859375 C1198.67598079 589.37278475 1189.13179692 597.22943174 1179.71044922 605.23657227 C1175.59893408 608.72666897 1171.43848691 612.15189259 1167.2578125 615.55859375 C1157.67598079 623.37278475 1148.13179692 631.22943174 1138.71044922 639.23657227 C1134.59893408 642.72666897 1130.43848691 646.15189259 1126.2578125 649.55859375 C1116.67598079 657.37278475 1107.13179692 665.22943174 1097.71044922 673.23657227 C1093.59893408 676.72666897 1089.43848691 680.15189259 1085.2578125 683.55859375 C1075.68411242 691.36615323 1066.14574026 699.21377634 1056.73461914 707.21679688 C1052.3931428 710.90372062 1047.99461334 714.5168134 1043.578125 718.11328125 C1040.76311635 720.40852523 1037.97157384 722.72989759 1035.1875 725.0625 C1038.81104139 726.30796152 1041.54398578 725.84492927 1045.27590942 725.15632629 C1046.53093891 724.92898363 1047.7859684 724.70164097 1049.07902908 724.46740913 C1050.473449 724.20603865 1051.86784066 723.94451732 1053.26220703 723.68286133 C1054.74047195 723.41180246 1056.21887339 723.14148728 1057.69739914 722.87185478 C1061.75797626 722.12917105 1065.81656789 721.37609734 1069.87492514 720.62139106 C1074.2225417 719.81481862 1078.57194853 719.01801648 1082.9211731 718.22016907 C1090.43380485 716.84071366 1097.94533989 715.45541665 1105.45617676 714.06622314 C1117.42717741 711.85224145 1129.40040237 709.65044319 1141.37402344 707.45068359 C1145.44214825 706.7031771 1149.51026071 705.95560343 1153.57836914 705.20800781 C1154.58900311 705.02229367 1155.59963708 704.83657953 1156.64089632 704.64523768 C1163.85840751 703.31880421 1171.07562714 701.99079188 1178.29272461 700.66210938 C1203.35983926 696.04760829 1228.4304659 691.45310964 1253.5078125 686.89453125 C1254.27847455 686.75443831 1255.0491366 686.61434536 1255.84315205 686.47000718 C1265.0795061 684.79115285 1274.31615179 683.11390655 1283.55291677 681.43731469 C1292.03611217 679.89745098 1300.51903404 678.35608232 1309.00195312 676.81469727 C1312.14601472 676.24342419 1315.29007837 675.67216238 1318.43414307 675.10090637 C1319.21846372 674.9583998 1320.00278437 674.81589323 1320.81087232 674.66906828 C1326.40316051 673.6530033 1331.99548628 672.63714526 1337.58782959 671.62138367 C1363.81688889 666.85723755 1390.04526925 662.08936152 1416.2734375 657.3203125 C1417.30142708 657.13339482 1418.32941666 656.94647714 1419.38855743 656.75389528 C1429.77491005 654.86535967 1440.1612552 652.97678304 1450.54759455 651.08817446 C1463.29765752 648.76975837 1476.04774605 646.45148287 1488.79785156 644.13330078 C1489.72802566 643.96417954 1490.65819975 643.7950583 1491.61656094 643.62081218 C1496.27263284 642.77426108 1500.92870522 641.92771257 1505.58477783 641.08116531 C1513.77388357 639.59225587 1521.96298525 638.10332412 1530.15208721 636.61439395 C1534.70836559 635.7859785 1539.26464423 634.95756452 1543.82092285 634.12915039 C1545.68418884 633.79037476 1547.54745484 633.45159913 1549.41072083 633.11282349 C1580.66964722 627.42938232 1611.92857361 621.74594116 1643.1875 616.0625 C1642.23187894 614.93548589 1641.27453649 613.80993124 1640.31646729 612.68499756 C1639.78353184 612.05804867 1639.25059639 611.43109978 1638.70151138 610.78515244 C1637.02192084 608.87410291 1635.24986663 607.2075317 1633.296875 605.578125 C1629.22432283 602.1089139 1625.32447275 598.48728069 1621.4375 594.8125 C1614.7379786 588.50541919 1607.98445958 582.26437694 1601.1875 576.0625 C1599.20778065 574.25059792 1597.22845151 572.43828485 1595.25 570.625 C1594.75653076 570.17278076 1594.26306152 569.72056152 1593.75463867 569.25463867 C1588.43378489 564.37582239 1583.13081665 559.47767912 1577.82861328 554.57861328 C1575.11572415 552.07235896 1572.40156708 549.56747855 1569.6875 547.0625 C1566.42514315 544.05147128 1563.16306408 541.04014474 1559.90234375 538.02734375 C1554.67274875 533.19619408 1549.43825622 528.3706505 1544.1875 523.5625 C1537.28643023 517.24314701 1530.4144687 510.8924052 1523.54199219 504.54199219 C1517.76625316 499.20552505 1511.98700458 493.87314282 1506.1875 488.5625 C1500.38646736 483.25045792 1494.60580883 477.91655666 1488.82861328 472.57861328 C1486.11572415 470.07235896 1483.40156708 467.56747855 1480.6875 465.0625 C1477.42514315 462.05147128 1474.16306408 459.04014474 1470.90234375 456.02734375 C1465.67274875 451.19619408 1460.43825622 446.3706505 1455.1875 441.5625 C1451.03357322 437.75872312 1446.88841496 433.94564713 1442.75 430.125 C1441.94743774 429.38540039 1441.94743774 429.38540039 1441.12866211 428.63085938 C1438.30324172 426.02525508 1435.48834584 423.40936082 1432.6875 420.77734375 C1432.11185303 420.23907959 1431.53620605 419.70081543 1430.94311523 419.14624023 C1429.85081244 418.12450005 1428.76154431 417.09950128 1427.67602539 416.07055664 C1424.36413021 412.98055684 1421.00018574 410.47170828 1417.1875 408.0625 Z M1619.1875 740.0625 C1618.35921251 740.19662324 1617.53092503 740.33074648 1616.67753792 740.46893406 C1518.50822836 756.36501967 1420.33633632 772.24505869 1322.15492225 788.0662297 C1307.08871269 790.49405105 1292.02281832 792.92380958 1276.95743644 795.35676187 C1263.02654916 797.60650056 1249.09541667 799.85471683 1235.1640625 802.1015625 C1233.90672255 802.30436207 1232.6493826 802.50716164 1231.35394144 802.71610665 C1194.67600371 808.63122736 1157.98861685 814.48374506 1121.2929797 820.2877931 C1111.02350941 821.91214408 1100.754704 823.54063657 1090.48648071 825.17285156 C1089.82054553 825.27869782 1089.15461036 825.38454408 1088.46849532 825.49359781 C1082.47578761 826.44612513 1076.48311417 827.39886764 1070.49056458 828.35238934 C1054.99477987 830.81788533 1039.49702163 833.26990386 1023.99533474 835.69802558 C1014.40096435 837.20198726 1004.80922683 838.72199717 995.21943462 840.25487816 C989.69140575 841.13789935 984.16241273 842.01308931 978.63001633 842.86835861 C973.57230688 843.6503236 968.51832356 844.45284542 963.46656299 845.27233839 C961.63341092 845.56583842 959.79898416 845.85149891 957.96330953 846.12878466 C955.48206894 846.5046904 953.00688889 846.90804936 950.53125 847.31900024 C949.80726812 847.4217924 949.08328624 847.52458455 948.33736551 847.63049161 C946.11896473 847.96531994 946.11896473 847.96531994 943.1875 849.0625 C941.08285817 852.97608616 940.63158825 857.10506163 940.14174271 861.45924568 C940.05289129 862.19894829 939.96403987 862.9386509 939.87249599 863.70076874 C939.57531419 866.18927258 939.28810143 868.67882585 939.00079346 871.16848755 C938.78754886 872.97170018 938.57369299 874.77484061 938.3592788 876.57791454 C937.76962271 881.55170334 937.18868677 886.52647834 936.60911343 891.5014507 C935.98009679 896.88760571 935.34303855 902.27281014 934.70696449 907.65813541 C933.59739161 917.06187867 932.4929733 926.46621614 931.39193344 935.87096214 C929.77099714 949.71631364 928.14215267 963.56072631 926.51155113 977.40494242 C923.80596253 1000.37794841 921.10672159 1023.35169461 918.41131592 1046.32589722 C915.76948837 1068.84327795 913.12504549 1091.36034881 910.47686768 1113.87698364 C910.39508866 1114.5723354 910.31330964 1115.26768716 910.22905247 1115.98411019 C909.3193515 1123.71910274 908.40957422 1131.45408631 907.4997623 1139.18906581 C905.84256412 1153.27816594 904.18572981 1167.36730885 902.52902222 1181.45646667 C902.44704283 1182.15363797 902.36506344 1182.85080927 902.28059983 1183.56910697 C899.70895038 1205.4391016 897.13903107 1227.30929908 894.57034302 1249.17964172 C894.4054419 1250.58362982 894.24054062 1251.9876179 894.07563917 1253.39160597 C893.50160391 1258.27901154 892.92757337 1263.16641768 892.3535452 1268.05382409 C885.67989111 1324.87479698 878.99326011 1381.69422732 872.29164124 1438.51190948 C870.90991066 1450.2265338 869.52877973 1461.94122877 868.14782715 1473.65594482 C867.92561565 1475.54095157 867.70340413 1477.42595832 867.48119259 1479.31096506 C866.61571394 1486.65282279 865.75025973 1493.9946834 864.8848381 1501.33654785 C864.25914213 1506.64467601 863.63342481 1511.95280166 863.00769043 1517.26092529 C862.9059897 1518.12366544 862.80428897 1518.98640559 862.6995064 1519.87528938 C861.27440967 1531.96431868 859.84834991 1544.05323407 858.42170767 1556.14208107 C856.6151565 1571.45016965 854.81037228 1586.7584646 853.00893819 1602.06715626 C852.07950707 1609.96499621 851.14848072 1617.86264403 850.21501917 1625.76000866 C849.53142731 1631.54486016 848.85081066 1637.330059 848.17142248 1643.1154058 C847.89754005 1645.44357565 847.62266797 1647.77162934 847.34672785 1650.09955621 C846.97509843 1653.23594027 846.6070013 1656.37271879 846.23983765 1659.5096283 C846.13155297 1660.41616632 846.0232683 1661.32270434 845.91170228 1662.25671321 C845.45204521 1666.21409683 845.04950213 1670.06982808 845.1875 1674.0625 C852.27127651 1667.20009151 858.56108134 1659.66665793 864.76953125 1652.015625 C867.37439042 1648.83424611 870.02410216 1645.69482217 872.6875 1642.5625 C876.80749681 1637.71444019 880.85546299 1632.81403743 884.87109375 1627.87890625 C887.46537266 1624.72464808 890.10356265 1621.6104702 892.75 1618.5 C895.95489191 1614.73161061 899.11437694 1610.94003972 902.1875 1607.0625 C905.71633403 1602.60996299 909.36979329 1598.27564021 913.05078125 1593.94921875 C915.96754513 1590.51678391 918.84443426 1587.05657185 921.6875 1583.5625 C924.99374074 1579.4991952 928.35566429 1575.48950691 931.75 1571.5 C934.95489191 1567.73161061 938.11437694 1563.94003972 941.1875 1560.0625 C944.71633403 1555.60996299 948.36979329 1551.27564021 952.05078125 1546.94921875 C955.718656 1542.63287996 959.30876321 1538.2577084 962.8828125 1533.86328125 C965.40783075 1530.79474213 967.98234769 1527.77210188 970.5625 1524.75 C974.34542492 1520.31398397 977.99282737 1515.79649357 981.5625 1511.1875 C986.01801671 1505.44222845 990.69893405 1499.93154559 995.48730469 1494.46191406 C999.4026181 1489.98626957 1003.1987924 1485.43020682 1006.94140625 1480.80859375 C1009.50640394 1477.67260527 1012.1240746 1474.58494685 1014.75 1471.5 C1017.95498518 1467.73169439 1021.11438084 1463.94003481 1024.1875 1460.0625 C1027.71633403 1455.60996299 1031.36979329 1451.27564021 1035.05078125 1446.94921875 C1038.718656 1442.63287996 1042.30876321 1438.2577084 1045.8828125 1433.86328125 C1048.40783075 1430.79474213 1050.98234769 1427.77210188 1053.5625 1424.75 C1057.34542492 1420.31398397 1060.99282737 1415.79649357 1064.5625 1411.1875 C1069.01801671 1405.44222845 1073.69893405 1399.93154559 1078.48730469 1394.46191406 C1082.4026181 1389.98626957 1086.1987924 1385.43020682 1089.94140625 1380.80859375 C1092.50640394 1377.67260527 1095.1240746 1374.58494685 1097.75 1371.5 C1100.95498518 1367.73169439 1104.11438084 1363.94003481 1107.1875 1360.0625 C1110.71633403 1355.60996299 1114.36979329 1351.27564021 1118.05078125 1346.94921875 C1121.718656 1342.63287996 1125.30876321 1338.2577084 1128.8828125 1333.86328125 C1131.40783075 1330.79474213 1133.98234769 1327.77210188 1136.5625 1324.75 C1140.34542492 1320.31398397 1143.99282737 1315.79649357 1147.5625 1311.1875 C1152.01801671 1305.44222845 1156.69893405 1299.93154559 1161.48730469 1294.46191406 C1165.4026181 1289.98626957 1169.1987924 1285.43020682 1172.94140625 1280.80859375 C1175.50640394 1277.67260527 1178.1240746 1274.58494685 1180.75 1271.5 C1183.95498518 1267.73169439 1187.11438084 1263.94003481 1190.1875 1260.0625 C1193.71633403 1255.60996299 1197.36979329 1251.27564021 1201.05078125 1246.94921875 C1204.718656 1242.63287996 1208.30876321 1238.2577084 1211.8828125 1233.86328125 C1214.40783075 1230.79474213 1216.98234769 1227.77210188 1219.5625 1224.75 C1223.34542492 1220.31398397 1226.99282737 1215.79649357 1230.5625 1211.1875 C1235.01801671 1205.44222845 1239.69893405 1199.93154559 1244.48730469 1194.46191406 C1248.4026181 1189.98626957 1252.1987924 1185.43020682 1255.94140625 1180.80859375 C1258.50640394 1177.67260527 1261.1240746 1174.58494685 1263.75 1171.5 C1266.95498518 1167.73169439 1270.11438084 1163.94003481 1273.1875 1160.0625 C1276.71633403 1155.60996299 1280.36979329 1151.27564021 1284.05078125 1146.94921875 C1287.718656 1142.63287996 1291.30876321 1138.2577084 1294.8828125 1133.86328125 C1297.40783075 1130.79474213 1299.98234769 1127.77210188 1302.5625 1124.75 C1306.34542492 1120.31398397 1309.99282737 1115.79649357 1313.5625 1111.1875 C1318.01801671 1105.44222845 1322.69893405 1099.93154559 1327.48730469 1094.46191406 C1331.4026181 1089.98626957 1335.1987924 1085.43020682 1338.94140625 1080.80859375 C1341.50640394 1077.67260527 1344.1240746 1074.58494685 1346.75 1071.5 C1349.95498518 1067.73169439 1353.11438084 1063.94003481 1356.1875 1060.0625 C1359.71633403 1055.60996299 1363.36979329 1051.27564021 1367.05078125 1046.94921875 C1370.718656 1042.63287996 1374.30876321 1038.2577084 1377.8828125 1033.86328125 C1380.40783075 1030.79474213 1382.98234769 1027.77210188 1385.5625 1024.75 C1389.34542492 1020.31398397 1392.99282737 1015.79649357 1396.5625 1011.1875 C1401.01801671 1005.44222845 1405.69893405 999.93154559 1410.48730469 994.46191406 C1414.4026181 989.98626957 1418.1987924 985.43020682 1421.94140625 980.80859375 C1424.50640394 977.67260527 1427.1240746 974.58494685 1429.75 971.5 C1432.95498518 967.73169439 1436.11438084 963.94003481 1439.1875 960.0625 C1442.71633403 955.60996299 1446.36979329 951.27564021 1450.05078125 946.94921875 C1453.718656 942.63287996 1457.30876321 938.2577084 1460.8828125 933.86328125 C1463.40783075 930.79474213 1465.98234769 927.77210188 1468.5625 924.75 C1472.34542492 920.31398397 1475.99282737 915.79649357 1479.5625 911.1875 C1484.01801671 905.44222845 1488.69893405 899.93154559 1493.48730469 894.46191406 C1497.4026181 889.98626957 1501.1987924 885.43020682 1504.94140625 880.80859375 C1507.50640394 877.67260527 1510.1240746 874.58494685 1512.75 871.5 C1515.95498518 867.73169439 1519.11438084 863.94003481 1522.1875 860.0625 C1525.71633403 855.60996299 1529.36979329 851.27564021 1533.05078125 846.94921875 C1536.718656 842.63287996 1540.30876321 838.2577084 1543.8828125 833.86328125 C1546.40783075 830.79474213 1548.98234769 827.77210188 1551.5625 824.75 C1555.34542492 820.31398397 1558.99282737 815.79649357 1562.5625 811.1875 C1567.01801671 805.44222845 1571.69893405 799.93154559 1576.48730469 794.46191406 C1580.4026181 789.98626957 1584.1987924 785.43020682 1587.94140625 780.80859375 C1590.50640394 777.67260527 1593.1240746 774.58494685 1595.75 771.5 C1599.60803347 766.96386384 1603.36476937 762.36369742 1607.0625 757.6953125 C1611.33615643 752.40037787 1615.77285914 747.23996484 1620.1875 742.0625 C1619.8575 741.4025 1619.5275 740.7425 1619.1875 740.0625 Z " fill="#FF0509" transform="translate(120.8125,2.9375)"/>
</svg>
